<svg viewBox="0 0 330 200" xmlns="http://www.w3.org/2000/svg"><g><g><g><g><g><line x1="51.41600036621094" y1="176.95999908447266" x2="46.41600036621094" y2="176.95999908447266" style="visibility: inherit;" fill="rgb(0, 0, 0)" stroke="rgb(204, 204, 204)" stroke-width="1px"></line><line x1="51.41600036621094" y1="154.83999919891355" x2="46.41600036621094" y2="154.83999919891355" style="visibility: inherit;" fill="rgb(0, 0, 0)" stroke="rgb(204, 204, 204)" stroke-width="1px"></line><line x1="51.41600036621094" y1="132.7199993133545" x2="46.41600036621094" y2="132.7199993133545" style="visibility: inherit;" fill="rgb(0, 0, 0)" stroke="rgb(204, 204, 204)" stroke-width="1px"></line><line x1="51.41600036621094" y1="110.59999942779541" x2="46.41600036621094" y2="110.59999942779541" style="visibility: inherit;" fill="rgb(0, 0, 0)" stroke="rgb(204, 204, 204)" stroke-width="1px"></line><line x1="51.41600036621094" y1="88.47999954223631" x2="46.41600036621094" y2="88.47999954223631" style="visibility: inherit;" fill="rgb(0, 0, 0)" stroke="rgb(204, 204, 204)" stroke-width="1px"></line><line x1="51.41600036621094" y1="66.35999965667725" x2="46.41600036621094" y2="66.35999965667725" style="visibility: inherit;" fill="rgb(0, 0, 0)" stroke="rgb(204, 204, 204)" stroke-width="1px"></line><line x1="51.41600036621094" y1="44.23999977111814" x2="46.41600036621094" y2="44.23999977111814" style="visibility: inherit;" fill="rgb(0, 0, 0)" stroke="rgb(204, 204, 204)" stroke-width="1px"></line><line x1="51.41600036621094" y1="22.119999885559103" x2="46.41600036621094" y2="22.119999885559103" style="visibility: inherit;" fill="rgb(0, 0, 0)" stroke="rgb(204, 204, 204)" stroke-width="1px"></line><line x1="51.41600036621094" y1="0" x2="46.41600036621094" y2="0" style="visibility: inherit;" fill="rgb(0, 0, 0)" stroke="rgb(204, 204, 204)" stroke-width="1px"></line></g><g transform="translate(41.41600036621094, 0)"><text style="text-anchor: end; visibility: hidden; font-family: Roboto, sans-serif; font-size: 12px; font-weight: 200;" x="0" y="176.95999908447266" dx="0em" dy="0.3em" fill="rgb(33, 33, 33)" stroke="none" stroke-width="1px">0.6</text><text style="text-anchor: end; visibility: inherit; font-family: Roboto, sans-serif; font-size: 12px; font-weight: 200;" x="0" y="154.83999919891355" dx="0em" dy="0.3em" fill="rgb(33, 33, 33)" stroke="none" stroke-width="1px">0.65</text><text style="text-anchor: end; visibility: hidden; font-family: Roboto, sans-serif; font-size: 12px; font-weight: 200;" x="0" y="132.7199993133545" dx="0em" dy="0.3em" fill="rgb(33, 33, 33)" stroke="none" stroke-width="1px">0.7</text><text style="text-anchor: end; visibility: inherit; font-family: Roboto, sans-serif; font-size: 12px; font-weight: 200;" x="0" y="110.59999942779541" dx="0em" dy="0.3em" fill="rgb(33, 33, 33)" stroke="none" stroke-width="1px">0.75</text><text style="text-anchor: end; visibility: hidden; font-family: Roboto, sans-serif; font-size: 12px; font-weight: 200;" x="0" y="88.47999954223631" dx="0em" dy="0.3em" fill="rgb(33, 33, 33)" stroke="none" stroke-width="1px">0.8</text><text style="text-anchor: end; visibility: inherit; font-family: Roboto, sans-serif; font-size: 12px; font-weight: 200;" x="0" y="66.35999965667725" dx="0em" dy="0.3em" fill="rgb(33, 33, 33)" stroke="none" stroke-width="1px">0.85</text><text style="text-anchor: end; visibility: hidden; font-family: Roboto, sans-serif; font-size: 12px; font-weight: 200;" x="0" y="44.23999977111814" dx="0em" dy="0.3em" fill="rgb(33, 33, 33)" stroke="none" stroke-width="1px">0.9</text><text style="text-anchor: end; visibility: inherit; font-family: Roboto, sans-serif; font-size: 12px; font-weight: 200;" x="0" y="22.119999885559103" dx="0em" dy="0.3em" fill="rgb(33, 33, 33)" stroke="none" stroke-width="1px">0.95</text><text style="text-anchor: end; visibility: hidden; font-family: Roboto, sans-serif; font-size: 12px; font-weight: 200;" x="0" y="0" dx="0em" dy="0.3em" fill="rgb(33, 33, 33)" stroke="none" stroke-width="1px">1</text></g><line x1="51.41600036621094" y1="0" x2="51.41600036621094" y2="176.95999908447266" fill="rgb(0, 0, 0)" stroke="rgb(204, 204, 204)" stroke-width="1px"></line></g></g><g transform="translate(51, 0)" clip-path="url(#clip_0)"><clipPath id="clip_0"><rect width="278" height="176"></rect></clipPath><g><g><g><line x1="0" y1="0" x2="0" y2="176.95999908447266" fill="rgb(0, 0, 0)" stroke="rgb(66, 66, 66)" stroke-width="1px" opacity="0.25"></line><line x1="34.82299995422363" y1="0" x2="34.82299995422363" y2="176.95999908447266" fill="rgb(0, 0, 0)" stroke="rgb(66, 66, 66)" stroke-width="1px" opacity="0.25"></line><line x1="69.64599990844727" y1="0" x2="69.64599990844727" y2="176.95999908447266" fill="rgb(0, 0, 0)" stroke="rgb(66, 66, 66)" stroke-width="1px" opacity="0.25"></line><line x1="104.4689998626709" y1="0" x2="104.4689998626709" y2="176.95999908447266" fill="rgb(0, 0, 0)" stroke="rgb(66, 66, 66)" stroke-width="1px" opacity="0.25"></line><line x1="139.29199981689453" y1="0" x2="139.29199981689453" y2="176.95999908447266" fill="rgb(0, 0, 0)" stroke="rgb(66, 66, 66)" stroke-width="1px" opacity="0.25"></line><line x1="174.11499977111816" y1="0" x2="174.11499977111816" y2="176.95999908447266" fill="rgb(0, 0, 0)" stroke="rgb(66, 66, 66)" stroke-width="1px" opacity="0.25"></line><line x1="208.9379997253418" y1="0" x2="208.9379997253418" y2="176.95999908447266" fill="rgb(0, 0, 0)" stroke="rgb(66, 66, 66)" stroke-width="1px" opacity="0.25"></line><line x1="243.76099967956543" y1="0" x2="243.76099967956543" y2="176.95999908447266" fill="rgb(0, 0, 0)" stroke="rgb(66, 66, 66)" stroke-width="1px" opacity="0.25"></line><line x1="278.58399963378906" y1="0" x2="278.58399963378906" y2="176.95999908447266" fill="rgb(0, 0, 0)" stroke="rgb(66, 66, 66)" stroke-width="1px" opacity="0.25"></line></g><g><line x1="0" y1="176.95999908447266" x2="278.58399963378906" y2="176.95999908447266" fill="rgb(0, 0, 0)" stroke="rgb(66, 66, 66)" stroke-width="1px" opacity="0.25"></line><line x1="0" y1="154.83999919891355" x2="278.58399963378906" y2="154.83999919891355" fill="rgb(0, 0, 0)" stroke="rgb(66, 66, 66)" stroke-width="1px" opacity="0.25"></line><line x1="0" y1="132.7199993133545" x2="278.58399963378906" y2="132.7199993133545" fill="rgb(0, 0, 0)" stroke="rgb(66, 66, 66)" stroke-width="1px" opacity="0.25"></line><line x1="0" y1="110.59999942779541" x2="278.58399963378906" y2="110.59999942779541" fill="rgb(0, 0, 0)" stroke="rgb(66, 66, 66)" stroke-width="1px" opacity="0.25"></line><line x1="0" y1="88.47999954223631" x2="278.58399963378906" y2="88.47999954223631" fill="rgb(0, 0, 0)" stroke="rgb(66, 66, 66)" stroke-width="1px" opacity="0.25"></line><line x1="0" y1="66.35999965667725" x2="278.58399963378906" y2="66.35999965667725" fill="rgb(0, 0, 0)" stroke="rgb(66, 66, 66)" stroke-width="1px" opacity="0.25"></line><line x1="0" y1="44.23999977111814" x2="278.58399963378906" y2="44.23999977111814" fill="rgb(0, 0, 0)" stroke="rgb(66, 66, 66)" stroke-width="1px" opacity="0.25"></line><line x1="0" y1="22.119999885559103" x2="278.58399963378906" y2="22.119999885559103" fill="rgb(0, 0, 0)" stroke="rgb(66, 66, 66)" stroke-width="1px" opacity="0.25"></line><line x1="0" y1="0" x2="278.58399963378906" y2="0" fill="rgb(0, 0, 0)" stroke="rgb(66, 66, 66)" stroke-width="1px" opacity="0.25"></line></g></g></g><g><g><line x1="0" y1="442.39999771118164" x2="278.58399963378906" y2="442.39999771118164" fill="rgb(0, 0, 0)" stroke="rgb(153, 153, 153)" stroke-width="1.5px"></line></g></g><g><g><line x1="34.82299995422363" y1="0" x2="34.82299995422363" y2="176.95999908447266" fill="rgb(0, 0, 0)" stroke="rgb(153, 153, 153)" stroke-width="1.5px"></line></g></g><g><g><g><g><g><path style="fill: none;" stroke="rgb(255, 112, 67)" stroke-width="2px" d="M44.26003294181823,178.91336661396087L44.364501941680906,176.2417626488369L44.643085941314695,173.59014356412956L44.74755494117736,171.6742310334193L44.92166994094849,169.7826149993753L45.095784940719604,168.042738346339L45.54848394012451,165.57495507353923L45.8270679397583,163.33248196366569L45.89671393966675,161.689839495639L45.93153693962097,160.5397741496589L46.036005939483644,159.4309304322176L46.83693493843079,155.9771135312079L46.87175793838501,153.79474824164163L47.289633937835696,151.21216588937025L47.49857193756104,149.1180313863744L47.53339493751526,147.82289359172958L47.568217937469484,146.94708502434054L47.98609393692016,145.2483544790578L48.26467793655395,143.44926599723152L48.40396993637085,142.07672569422854L48.473615936279295,141.05259598749424L48.647730936050415,140.0705013402518L48.82184593582153,139.0129716203691L48.89149193572998,138.32545190806792L49.274544935226444,137.01911215104641L49.48348293495178,135.70307448916225L49.518305934906,134.83929145006323L50.005827934265135,133.09058692914266L50.040650934219364,131.92220755140477L50.11029693412781,131.1604677210967L50.35405793380737,130.1611592116121L50.56299593353271,129.05082583662158L50.87640293312073,127.79897876570705L51.01569493293763,126.7104621348588L51.120163932800295,125.87881228987241L51.18980993270874,125.2150893743945L51.32910193252563,124.65458021624879L51.36392493247986,124.30715751103071L51.538039932250975,123.65298180616041L51.572862932205204,123.22750446721017L51.78180093193055,122.5279831990424L52.58272993087768,120.61377562623255L52.652375930786135,119.34631591775668L52.68719893074035,118.51596199168387L52.72202193069458,117.94813522599986L52.82649093055725,117.40023082034098L52.896136930465694,116.97721338953059L53.383658929824826,116.04183566619892L53.418481929779055,115.4362351196182L53.4881279296875,114.98464380076273L53.557773929595946,114.6055862687673L53.6274199295044,114.22996798492527L53.76671192932129,113.81295698188963L53.836357929229735,113.45786466894097L54.04529592895508,112.87471376306694L54.184587928771975,112.28252288205101L54.39352592849732,111.62915320209042L54.463171928405764,111.13918602871502L54.60246392822266,110.65138233091719L55.15963192749024,109.47756099097319L55.36856992721558,108.50427177802865L55.50786192703247,107.72538844978715L55.57750792694092,107.15231838304628L56.16949892616272,106.2617500808767L56.20432192611695,105.67714960505351L56.482905925750735,105.03662461158606L56.51772892570496,104.5855958058837L56.69184392547607,104.10766469983494L56.7266669254303,103.77281935508846L57.00525092506409,103.2619698089933L57.21418892478943,102.72805300853808L57.24901192474365,102.36164139362171L57.42312692451477,101.98166018630354L57.73653392410278,101.5017727739459L58.0499409236908,100.96872376972448L58.328524923324586,100.3710590376659L58.36334792327881,99.97002705121984L58.920515922546386,99.1309032428503L58.99016192245483,98.51476963758014L59.93038292121887,97.31335548900554L60.000028921127324,96.56334278110909L60.06967492103577,96.0234059957647L60.17414392089844,95.54271657322663L60.27861292076111,95.17440456272575L60.31343592071533,94.91686979115411L60.731311920166014,94.39081893135399L61.42777191925049,93.47224324342241L61.810824918746945,92.64120571175025L61.845647918701175,92.12399825479372L62.05458591842651,91.64668357762636L62.263523918151854,91.1397753060667L62.82069191741944,90.58421684650685L62.855514917373654,90.20633909598304L62.9251609172821,89.91823574081664L63.343036916732785,89.41038074849288L63.7957359161377,88.71160800171937L64.07431991577148,88.10344670677493L64.17878891563416,87.66699475439721L64.66631091499329,87.12080145614566L64.84042591476441,86.64435323537998L64.9797179145813,86.2636821336112L65.15383291435242,85.94021361229355L65.67617791366577,85.42992486335197L66.05923091316224,84.88133525247876L66.19852291297913,84.43987023775664L67.20838991165161,83.64196634841078L67.27803591156005,83.10438929068135L67.6262659111023,82.55002707060974L67.87002691078186,82.0697111652647L68.35754891014099,81.43513719391814L68.91471690940857,80.81094278108921L69.01918590927124,80.39517432162408L69.43706190872193,79.90538531673792L69.61117690849305,79.5305798883155L69.71564590835571,79.25533166036172L69.78529190826416,79.07143957106805L70.16834490776063,78.79404028103318L70.41210590744018,78.4779508207015L70.55139790725707,78.26368950531707L70.62104390716553,78.10678066545184L70.93445090675354,77.82779855523802L71.59608790588379,77.30264395969235L72.08360990524291,76.78367590968803L72.11843290519715,76.44394302905089L72.18807890510558,76.19383081326762L72.32737090492249,75.95175643852782L72.64077790451049,75.64774876824069L73.05865390396117,75.2979531528353L73.19794590377808,75.02974734608864L73.26759190368652,74.8348077298619L73.3720609035492,74.67704569678718L73.44170690345764,74.57854913675222L73.5113529033661,74.4857936882406L73.85958290290833,74.25381555661201L73.99887490272522,74.0390759474654L74.24263590240479,73.8451954467793L74.31228190231323,73.69650699333678L74.48639690208434,73.51719599845865L74.73015790176392,73.42365885519439L74.90427290153502,73.2979116115577L74.93909590148927,73.2066839990999L75.35697190093995,72.99330041019869L75.70520190048218,72.71200253075276L75.77484790039063,72.50348030353496L75.80967090034486,72.35385425675983L76.05343190002442,72.22431403386867L76.22754689979553,72.09988495957973L76.36683889961243,71.97517897324262L76.40166189956665,71.88556759312571L76.81953789901733,71.68391233427167L77.09812189865112,71.42954429790484L77.23741389846802,71.24717913724942L77.41152889823913,71.06696429537278L77.48117489814759,70.92166551434048L78.14281189727784,70.63384907787487L78.21245789718628,70.43386192914942L78.38657289695739,70.25484505831031L78.42139589691162,70.1250844911288L78.49104189682006,70.06433641946914L78.59551089668274,69.96993885393385L78.73480289649964,69.85105870345394L78.94374089622497,69.68274508281453L79.08303289604187,69.52920857848838L79.25714789581298,69.38051969391601L79.46608589553833,69.23090004100591L79.570554895401,69.09393811736291L79.74466989517212,68.94787392050834L80.0232538948059,68.77607579971213L80.16254589462281,68.65676411252957L80.3018378944397,68.56058000867243L80.61524489402771,68.36612996881853L80.85900589370728,68.16390805402192L80.96347489356995,63.01834471797219L80.99829789352417,54.401006744952625L81.31170489311218,49.7333254780102L81.65993489265442,45.63998767103554L82.18227989196777,43.66677146811761L82.32157189178466,41.96056490885897L82.70462489128113,39.923002019808806L82.73944789123534,38.8422561824652L82.87873989105225,38.512843083163105L83.33143889045715,37.37350211321943L84.16719088935851,35.14904585084005L84.89847388839722,33.4106507057306L84.93329688835144,32.26048126066823L85.28152688789368,31.389561437370215L85.56011088752746,31.307415615636828L85.5949338874817,31.247591032349796L85.69940288734435,31.503886947064654L86.15210188674928,31.879396939509554L86.22174788665771,32.37053505258919L86.60480088615418,32.517909609736726L86.70926988601686,32.436295873683044L86.84856188583375,32.1482443241142L87.12714588546753,31.840182129050746L87.3709068851471,31.59891494932853L87.40572988510131,31.386987283444302L87.51019888496398,31.41367853010269L87.61466788482666,31.521120203283836L88.03254388427735,31.32805408059529L88.24148188400268,31.278822740225202L88.38077388381957,31.274397861806975L88.72900388336181,31.404632624467727L88.83347288322449,31.413180167299696L89.32099488258362,31.51412343554522L89.4254638824463,31.690945461259677L89.5995788822174,31.762442424425913L89.70404788208008,31.785236804517105L90.01745488166809,31.783788119844882L90.40050788116456,31.716078527765042L90.57462288093566,31.606903673903258L90.64426888084412,31.609800193269656L91.48002087974548,31.449442005874648L91.75860487937926,31.352172329649136L91.82825087928772,31.320063594609323L91.9327198791504,31.28703368614564L92.14165787887573,31.171780713485024L92.17648087882995,31.132731888412074L92.42024187850951,31.11376424419363L92.69882587814331,31.069854742425598L92.8381178779602,31.027814156192036L92.97740987777709,30.95530474381399L93.22117087745667,30.855116090393793L93.2908168773651,30.756957568490925L93.49975487709045,30.739662339167165L93.81316187667846,30.819035052335398L94.09174587631226,30.72179742152533L94.1613918762207,30.628172994314376L94.26586087608337,30.53423779435986L94.37032987594604,30.52665949960478L94.40515287590026,30.49056453783806L94.64891387557984,30.39297511564477L94.82302887535094,30.43228244662469L95.06678987503052,30.436269334022587L95.38019687461852,30.467730756472026L95.51948887443542,30.47566970945506L95.58913487434387,30.448769072314462L95.90254187393188,30.486706429465922L96.28559487342835,30.38027082730484L96.63382487297058,30.17099973012721L96.70347087287904,30.04154499344105L96.94723187255859,29.950497746591342L97.12134687232972,29.862770910798773L97.22581587219237,29.78116044805343L97.50439987182617,29.90457421635886L98.16603687095642,29.829447234736232L98.54908987045289,29.72267791177399L99.14108086967468,29.570322041262248L99.28037286949157,29.431792220523445L99.59377986907958,29.234939148767488L99.76789486885072,29.09160790353119L99.80271786880493,29.004702059531297L99.83754086875915,28.97202949266686L100.56882386779785,28.874637123147178L100.95187686729432,28.692530647235074L101.05634586715699,28.60080748349041L101.26528386688233,28.42881082873812L101.30010686683654,28.306342301471062L101.61351386642457,28.136909323272082L101.8224518661499,28.07117479098855L101.85727486610412,28.031533666498632L102.24032786560059,28.077711473895153L102.37961986541748,28.104131346511096L102.55373486518859,28.100575616372456L102.62338086509705,28.115624280403765L102.93678786468506,28.06937330866786L103.07607986450195,28.040747271681884L103.11090286445616,28.07543438497029L103.18054886436462,28.06103863768356L103.21537186431884,28.069435624495586L103.2850178642273,28.10839502002061L103.66807086372376,28.14521889563887L103.7377168636322,28.166638172185188L104.016300863266,28.226890822767608L104.05112386322021,28.245986882657242L104.15559286308289,28.239735034582306L105.3743978614807,28.0668630998911L106.10568086051941,27.976598725017528L106.38426486015321,27.861084490516962L106.80214085960388,27.71710922122957L106.90660985946654,27.630956107690622L107.22001685905457,27.565330809921246L107.5682468585968,27.483533031686655L107.84683085823059,27.507190875600077L107.95129985809326,27.53581475057461L108.05576885795594,27.553084004300295L108.26470685768128,27.507311027712397L108.43882185745238,27.452381192707403L108.47364485740663,27.419560410996908L108.61293685722352,27.42826218315674L108.64775985717773,27.44749050956376L108.8915208568573,27.47340393584507L109.30939685630797,27.489764159730974L110.00585685539245,27.3816682501474L110.35408685493469,27.26648792404846L110.98090085411071,27.17640047663612L111.22466185379028,27.073449158954357L111.46842285346985,26.98878999413512L111.74700685310364,26.94084235747248L111.81665285301207,26.925258322831L111.95594485282898,26.904822334629074L112.16488285255433,26.857648060308996L112.30417485237122,26.80632854985208L112.68722785186769,26.779977399127503L112.79169685173034,26.741183405741577L112.96581185150147,26.756089458853296L113.41851085090637,26.805451639095224L114.25426284980774,26.7387795609893L115.09001484870912,26.75377169805751L115.12483784866333,26.75185017508758L115.47306784820556,26.765485049620263L115.57753684806823,26.763592980159792L115.75165184783936,26.764229741648155L116.03023584747314,26.778387013618786L116.37846584701538,26.757632776946426L116.72669584655762,26.748776979461773L116.97045684623718,26.724572681519117L118.01514684486388,26.658567082237408L118.15443884468078,26.58956745588321L118.18926184463501,26.538263448096842L118.3285538444519,26.48865350980043L119.47771284294129,26.41368037084803L119.61700484275818,26.390540645536124L119.65182784271241,26.367185031528358L119.82594284248351,26.325832185726114L120.27864184188843,26.248672551422075L120.55722584152223,26.187198719923323L120.66169484138489,26.142256025680044L121.35815484046935,26.164241996557838L121.63673884010315,26.181420586204982L121.81085383987427,26.165928217726783L121.88049983978271,26.138849479166026L121.98496883964539,26.096032736197493L122.05461483955384,26.07143964475642L122.08943783950805,26.075943776669554L122.47249083900451,26.121511856181662L122.50731383895874,26.15859872129452L122.54213683891297,26.181325484067056L122.61178283882141,26.205171655203124L122.68142883872986,26.211188914507265L122.85554383850098,26.207996043654L122.92518983840942,26.21620605351153L123.2037738380432,26.197547541115483L124.14399483680725,26.127939615071334L124.17881783676147,26.077789487326346L124.56187083625794,26.0446616909685L124.59669383621215,26.02531239504806L124.9449238357544,26.001435914635678L124.97974683570861,25.978903964113805L125.08421583557129,25.94954224169757L125.32797683525087,25.927094390096553L125.57173783493042,25.900198536108483L126.02443683433533,25.8827214737043L126.30302083396911,25.85117160340566L126.33784383392334,25.83281125367226L126.5816048336029,25.817291202455397L126.68607383346557,25.792843311360468L126.72089683341979,25.77875469678716L126.75571983337403,25.762464633094705L126.86018883323669,25.74604558301174L127.52182583236694,30.76146855628429L127.80040983200072,31.62353969602209L127.83523283195495,32.045030923145845L127.93970183181763,32.056627347527595L128.1834628314972,31.676476344143538L128.28793183135986,32.27788362829401L128.35757783126832,32.818080033378834L128.46204683113098,33.23934162134951L128.60133883094787,33.265872836776964L128.91474583053588,32.68895103107567L129.12368383026123,31.61065475915147L129.29779883003235,30.717642794694182L129.43709082984924,30.30381904815847L129.5067368297577,29.71629167058342L129.85496682929994,28.613268617977393L129.88978982925414,27.818333048668624L130.02908182907103,27.10041091960322L130.20319682884215,26.21424228120838L130.23801982879638,25.93777283970985L130.2728428287506,25.781141453235772L130.3773118286133,25.480893014874606L130.69071882820128,25.072377044012278L130.7255418281555,24.839418340338227L130.76036482810974,24.60723526262435L130.93447982788086,24.42938434716466L131.10859482765198,24.19211513614974L131.21306382751465,24.274080772076545L131.38717882728577,24.01897134829155L131.4568248271942,23.891378239512584L131.5612938270569,24.108785042096887L131.80505482673647,24.630715251382803L132.22293082618714,24.642748862978817L132.74527582550047,24.352894808908697L133.16315182495117,23.90213852490211L133.5113818244934,23.547978700243746L133.6506738243103,23.374720018380415L133.85961182403565,23.26984716476647L134.1033728237152,23.10557120016222L134.13819582366943,23.016445757306702L134.45160282325745,23.20042946329577L134.48642582321168,23.266730560530377L135.1480628223419,23.303832118848383L135.18288582229616,23.28599093460084L135.49629282188417,23.340607745473374L135.5659388217926,23.523228123427437L136.4365138206482,23.488213330073947L136.54098282051086,23.485799939652885L136.64545182037352,23.502536033113806L136.85438982009887,23.508421919863697L136.99368181991576,23.457538188065538L137.02850481987,23.432988459667314L137.6204958190918,23.29470359244491L137.72496481895448,23.193485258570565L137.96872581863403,23.173984974737984L138.0731948184967,23.109388400445784L138.14284081840515,23.012745019158206L138.3517788181305,22.990177958403134L138.8044778175354,23.016244102207832L139.15270781707764,22.957354179196003L139.2571768169403,22.90681053155892L139.36164581680296,22.86153834009383L139.64022981643677,22.81614870694964L139.95363681602478,22.836600797940708L140.47598181533812,22.664868509633553L140.92868081474302,22.51917448904281L141.5903178138733,22.476205822735242L141.69478681373596,22.439054269310837L142.1823088130951,22.459238675018565L142.2171318130493,22.45066540055094L142.42606981277464,22.398647733109947L142.6350078125,22.272339629475283L142.87876881217954,22.13345879746709L142.9135918121338,22.07945273158215L142.94841481208803,22.05201702949501L143.01806081199646,22.045396554389278L143.15735281181335,22.012998385226076L143.29664481163024,21.941876058092245L143.43593681144714,21.871937017879485L143.47075981140136,21.811473036901784L143.5055828113556,21.780225871586232L143.67969781112672,21.786296164340015L143.74934381103515,21.776616673343693L144.0975738105774,21.7737412220779L144.34133481025694,21.693720835298915L145.31637880897523,21.522301239978447L145.49049380874632,21.42267705997888L145.80390080833436,21.30279156367321L145.90836980819702,21.18399711076731L145.97801580810548,21.102141158225173L146.22177680778503,21.026669039625567L146.39589180755615,20.925947383742837L146.67447580718994,20.806363236954848L146.81376780700685,20.715426595569454L146.84859080696106,20.665843095819824L146.95305980682372,20.631557511679528L147.0227058067322,20.62084820261775L147.26646680641176,20.55309865051797L147.68434280586243,20.402669104152256L147.7539888057709,20.285240661141373L148.52009480476377,20.268639834375072L148.62456380462646,20.219431577745585L149.66925380325318,20.209377563303384L149.94783780288697,20.2901627620686L151.13181980133055,20.19300264505111L151.30593480110167,20.10887540966055L151.68898780059814,20.043537446646436L152.00239480018615,19.98129862769732L152.24615579986573,19.95870093409098L152.31580179977416,19.923161040575L152.42027079963682,19.86908668883287L152.48991679954528,19.81495613429627L152.6640317993164,19.743831256364096L152.69885479927063,19.70551250405129L152.97743879890442,19.687204403884454L153.01226179885865,19.665661358261584L153.3604917984009,19.680560199628182L153.49978379821778,19.6625397420144L153.84801379776002,19.62150848490594L153.98730579757688,19.59931568735441L154.1265977973938,19.6026547290437L154.40518179702758,19.566992539170354L154.5792967967987,19.510197352504658L155.10164179611206,19.564899708582306L155.1364647960663,19.5879751048233L155.34540279579164,19.557446429986168L155.5891637954712,19.48591639195466L155.7284557952881,19.41875989727631L156.07668579483033,19.325548501200796L156.11150879478453,19.260413575682026L156.14633179473876,19.21214562777299L156.18115479469301,19.21373081834223L156.39009279441834,19.199303476647575L156.4597387943268,19.185573657808217L156.56420779418946,19.16325466992826L156.70349979400635,19.113885284374952L156.807968793869,19.10932484065743L157.19102179336548,19.08612615693028L157.60889779281615,19.03099732547773L157.9223047924042,19.03326516115843L157.9571277923584,19.026050632966456L158.13124279212954,18.991471290597406L158.23571179199217,18.94534606842493L158.44464979171752,18.91647905204047L158.58394179153444,18.91469551281424L158.7232337913513,18.892487922957184L159.00181779098511,18.921912945390435L159.10628679084778,18.926847507561142L159.31522479057313,18.95240128521299L159.35004779052733,18.959538037167576L159.6286317901611,18.910712731589946L159.7331007900238,18.857316195676347L159.76792378997803,18.817293712249352L160.1857997894287,18.791645338321015L160.63849878883363,18.73245197382813L160.67332178878783,18.689204536562706L160.70814478874206,18.655545750909656L160.7429677886963,18.65053907807206L161.23048978805542,18.698954809058332L162.0662417869568,18.702753202553605L162.17071078681946,18.72664434867693L162.2403567867279,18.726117414571107L162.31000278663635,18.74378497670134L162.414471786499,18.753995251377756L162.55376378631593,18.730651315933205L162.6582327861786,18.705517196697944L162.6930557861328,18.683137759740465L163.31986978530884,18.668212332986307L163.66809978485108,18.651430729623208L164.08597578430175,18.64049686129883L164.26009078407287,18.619760514986936L164.2949137840271,18.600367813833657L164.39938278388976,18.57826893635989L164.78243578338623,18.540718399826723L164.81725878334044,18.521573869667872L165.23513478279114,18.51991755008127L165.26995778274537,18.522256811900952L165.33960378265382,18.53029483322233L165.37442678260803,18.54848150321527L165.4788957824707,18.53918423102362L165.51371878242492,18.536917826004473L165.54854178237915,18.5288496852982L165.79230278205873,18.537056228938063L165.86194878196716,18.528658488473372L166.45393978118898,18.510076677150348L166.5235857810974,18.50540384001791L166.55840878105164,18.505838262569085L166.69770078086853,18.499506642421743L166.8021697807312,18.48596165292768L167.394160779953,18.54132089166038L167.60309877967833,18.574135624660336L167.9513287792206,18.558637544476376L168.50849677848817,18.570476162687303L168.82190377807618,18.61401087486821L168.8915497779846,18.646112212857485L168.96119577789307,18.66212434318256L169.1353107776642,18.659116646467247L169.23977977752688,18.63882201922584L169.55318677711486,18.626128408624652L169.65765577697755,18.600264828723095L169.7621247768402,18.5846095614897L170.70234577560424,18.556462700990256L170.9112837753296,18.52184400540618L171.01575277519225,18.483510970977328L171.15504477500915,18.4459659576768L171.3639827747345,18.414832077182396L171.46845177459718,18.387534328733846L171.71221277427674,18.339713171129855L171.78185877418517,18.316874415593553L171.88632777404786,18.286115631811914L172.47831877326968,18.223434115891617L172.61761077308654,18.205918456510158L172.89619477272032,18.184829780082744L172.93101777267458,18.175066627006778L173.24442477226256,33.025039861763105L173.4533627719879,29.2950193475955L173.48818577194214,25.872011565641916L173.52300877189634,22.896543750450807L173.62747777175903,24.797926193050003L173.83641577148438,24.095418818933656L174.11499977111816,24.666478762345037L174.39358377075195,24.23342034306178L174.53287577056884,24.43583552179683L174.6025217704773,24.339001263010193L174.9159287700653,23.40625893141004L175.0900437698364,23.055604429501035L175.29898176956175,22.12835206714737L175.5079197692871,21.320639891300534L175.75168076896665,20.519235377195706L176.3784947681427,19.36077022045636L177.04013176727292,18.252466316996713L177.17942376708984,17.64568584076967L177.31871576690673,17.523348320079247L177.91070676612853,17.96926930656513L178.11964476585388,18.233341177954614L178.32858276557923,18.313341517838424L178.4330517654419,18.28760318531549L179.05986576461794,17.88506187542651L179.1991577644348,17.73999523795037L179.44291876411435,17.6260165883067L179.54738776397704,17.442533573920652L179.9304407634735,17.399516194599034L180.27867076301573,17.195577258406097L180.31349376296996,17.094298624822233L180.41796276283264,17.149049174787176L180.80101576232911,17.138517070145653L181.32336076164245,17.023536041870596L181.35818376159668,16.925741825841982L181.81088276100158,17.00636794977043L182.01982076072693,17.023417139609418L182.0894667606354,17.066903355763827L182.12428976058962,17.109438852919006L182.33322776031494,17.01986432661226L182.68145775985718,16.921112839973443L182.78592675971984,16.8690976275792L182.8903957595825,16.884762202903033L182.92521875953673,16.86992247623789L183.06451075935362,16.76577347013833L183.4127407588959,16.62752038355142L183.8654397583008,16.518536961299414L183.900262758255,16.503891593812366L184.49225375747682,16.49054779375391L184.87530675697326,16.497308206757676L185.18871375656127,16.457222590011675L185.36282875633242,16.370887418253815L185.53694375610354,16.321058723483596L185.74588175582883,16.336463611337L186.05928875541687,16.4558555264809L186.33787275505065,16.444976504393797L186.6512797546387,16.31388148772108L187.03433275413514,16.22374864769868L187.20844775390626,16.199676973467746L187.31291675376892,16.219250101107942L187.87008475303648,16.27296302883601L188.14866875267026,16.28634215657258L188.28796075248718,16.285203735892523L188.39242975234987,16.265070839224762L188.49689875221253,16.2337944002736L188.53172175216673,16.200325129691393L188.8103057518005,16.064873504157234L188.879951751709,15.955408692770424L189.26300475120544,15.810991689127665L189.54158875083922,15.712264441563837L189.9246417503357,15.64859808511395L190.0639337501526,15.60470254678614L190.3425177497864,15.522262337879738L191.1434467487335,15.369505194729255L191.35238474845886,15.250574717268636L191.49167674827575,15.154345100659745L192.0140217475891,15.011762131548412L192.22295974731443,14.86115451960763L192.32742874717712,14.799247479456598L192.39707474708558,14.74074428864903L192.64083574676513,14.671763361278263L192.74530474662782,14.638644152957587L192.88459674644469,14.616599814560896L193.0238887462616,14.601242588670079L193.0587117462158,14.581797044387272L193.16318074607847,14.558949221659612L193.6158797454834,14.472989208511622L193.68552574539186,14.40188952289787L193.7551717453003,14.358596853256522L193.89446374511718,14.29412237319191L194.0337557449341,14.254435659554057L194.10340174484253,14.266991886798388L194.3819857444763,14.308478469496443L194.73021574401855,14.311937618933236L195.21773774337768,14.292158402897789L195.32220674324034,14.270755808628627L195.42667574310303,14.28314420188777L196.01866674232483,14.294068505983137L196.5410117416382,14.288018661167921L196.7151267414093,14.242082178722564L196.74994974136354,14.222494303496282L196.88924174118043,14.193612214435442L197.02853374099732,14.143184473316213L197.06335674095152,14.104721766370233L197.1678257408142,14.08929117966917L197.34194074058533,14.055393545549443L197.37676374053956,14.026986022095711L197.72499374008177,13.961897017457769L198.00357773971558,13.938200975435434L198.14286973953247,13.89292055665107L198.21251573944093,13.850352754068464L198.42145373916628,13.824928096535613L198.70003773880006,13.764529411868617L198.73486073875426,13.720822473445962L198.94379873847961,13.665223138882972L199.0482677383423,13.609892808430907L199.53578973770144,13.637417361462981L199.64025873756407,13.632298887980346L199.6750817375183,13.622055410128988L199.779550737381,13.609011168241496L200.406364736557,13.575037028792375L200.5456567363739,13.555264308120245L200.78941773605348,13.509542758106456L200.99835573577883,13.469410472084821L201.1376477355957,13.473735889295792L201.17247073554992,13.469622841927649L201.2769397354126,13.48827138455224L201.62516973495482,13.460307678298307L201.90375373458863,13.418267861811632L202.11269173431398,13.367750736271676L202.21716073417664,13.331575974283743L202.3216297340393,13.30404882097855L202.39127573394777,13.274854268257783L202.4609217338562,13.24474365699077L203.0180897331238,13.192597872224509L203.08773573303222,13.149075141418267L203.15738173294065,13.110789528815406L203.1922047328949,13.081763817107747L203.22702773284914,13.058294045937185L203.4707887325287,13.040425581234219L203.50561173248292,13.023723991731709L204.13242573165894,13.070217281817389L204.2368947315216,13.08041431949798L204.8288857307434,13.061555735594988L205.2815847301483,13.048700630121944L205.73428372955323,13.015820902844768L205.8039297294617,12.98499695142356L206.46556672859194,12.944605684321896L206.6048587284088,12.910413953897493L206.84861972808838,12.87552248520577L206.98791172790527,12.8790370286079L207.1620267276764,12.91144911829241L208.17189372634886,12.891311087121167L208.24153972625734,12.879998245984078L208.58976972579956,12.866111981005258L208.62459272575379,12.852717355833201L209.73892872428894,12.814619812758052L210.57468072319028,12.770391772558206L210.99255672264098,12.718234736015878L211.06220272254944,12.677648045113934L211.23631772232056,12.650437620705949L211.58454772186278,12.628478927430669L211.68901672172547,12.611643681119427L211.7238397216797,12.596985953766389L212.00242372131348,12.59177751423545L212.0720697212219,12.579634220125307L212.24618472099303,12.57954173269673L212.45512272071838,12.572313846477865L213.1864057197571,12.58204766368496L213.5346357192993,12.5730263322294L213.67392771911622,12.569364441244971L213.81321971893308,12.568886571629553L214.0569807186127,12.538602367715715L214.19627271842955,12.512848093728136L214.23109571838378,12.49315537890587L214.30074171829224,12.472891092066739L214.33556471824647,12.465890314889007L214.75344071769715,12.541356157526874L215.06684771728516,12.622360512625669L215.44990071678163,12.65208285387101L215.8329537162781,12.633305407519822L215.90259971618653,12.622840560188362L216.07671471595765,12.605064726494962L216.14636071586608,12.586235354555964L216.3204757156372,12.581445623967557L216.52941371536255,12.580987194690167L216.7731747150421,12.57907725325156L216.91246671485902,12.56189887880337L217.22587371444703,12.524632091700697L217.74821871376037,12.461072945860778L217.7830417137146,12.41907702289096L217.9223337135315,12.387107885586914L218.06162571334838,12.352590137719883L218.16609471321104,12.329021079132843L218.89737771224975,12.278321531071615L219.14113871192933,12.23037162807026L219.21078471183776,12.202614259506396L219.2804307117462,12.178608134762294L220.0117137107849,13.128216372042598L220.04653671073913,13.959931901281843L220.15100571060182,15.589003498898188L220.22065171051025,16.431805859867456L220.35994371032717,15.961155723272665L220.39476671028137,15.475354444705811L220.56888171005247,16.553210218332794L220.63852770996095,17.105975871868342L220.70817370986938,17.636911786548797L220.8822887096405,17.871682899999534L221.54392570877076,17.394105915965607L221.7528637084961,16.687763737726907L221.82250970840454,16.087876163933426L221.92697870826723,15.930015266255973L222.2403857078552,15.28789741669974L222.62343870735168,14.702748969047477L222.9368457069397,14.083201421010084L222.9716687068939,13.76721715840928L223.1109607067108,13.483109217762319L223.45919070625305,13.432402333919125L223.70295170593263,13.279752175803178L223.8422437057495,13.283512727412942L224.08600470542908,13.418785319745103L224.43423470497132,13.354011757369134L224.50388070487978,13.243486968153634L224.538703704834,13.142069555743463L224.67799570465087,12.945365532340057L224.74764170455933,12.762063787428493L224.8172877044678,12.658896514555185L224.852110704422,12.635336814542736L224.92175670433042,12.558199953448838L225.3048097038269,12.38579973060295L226.21020770263672,12.091278588972905L226.4887917022705,12.002469918127474L226.59326070213316,11.880709450471576L226.66290670204162,11.868418111732812L226.69772970199585,11.890998600082602L226.94149070167543,11.802129329230274L227.0807827014923,11.66470090222486L227.15042870140076,11.590692503967404L227.25489770126342,11.534336991289392L227.91653470039367,11.68629922974898L228.16029570007322,11.733039374415721L228.2299416999817,11.810794478567221L228.33441069984437,11.84485366142357L228.6826406993866,11.687740782621097L229.10051669883728,11.673645650902667L229.97109169769288,11.500708706694702L231.3291886959076,11.272980152108904L231.6774186954498,11.044072283140448L232.16494069480896,10.924215545372547L232.33905569458005,10.88363853486778L232.40870169448854,10.836214096872773L232.86140069389344,10.720498825854165L233.41856869316103,10.675614016601127L233.5230376930237,10.64459064754997L233.76679869270325,10.687870165227734L233.87126769256594,10.709407867922774L234.1150286922455,10.72965055023187L234.35878969192507,10.697559366328145L234.4632586917877,10.699821837271092L234.70701969146728,10.70845718997741L234.81148869132997,10.684664040331485L235.05524969100952,10.60428610391931L235.12489569091795,10.561955471649656L235.22936469078064,10.581690434797256L235.26418769073487,10.584238943709238L235.29901069068907,10.600671861387786L235.3338336906433,10.601281333569853L235.57759469032285,10.609135839777377L235.82135569000246,10.621126413642443L236.13476268959045,10.640629851373179L236.27405468940736,10.66273188496608L236.41334668922423,10.663641821158622L237.1098066883087,10.561938981218102L237.52768268775938,10.468778624618535L237.91073568725585,10.389856917156154L238.50272668647767,10.275842821246222L238.85095668601988,10.174757781532893L239.09471768569946,10.103622405647318L239.19918668556213,10.059295748605912L239.54741668510437,10.001921747033018L239.5822396850586,9.960673024377742L239.65188568496703,9.922338433188846L239.86082368469238,9.877915425931295L240.10458468437193,9.823732286697238L241.00998268318176,9.752797358342134L241.46268168258666,9.700912289438856L241.95020368194582,9.637864095857289L242.12431868171694,9.604665592739774L242.2287876815796,9.600968757936212L242.50737168121339,9.585840348282977L242.7163096809387,9.559043270844432L243.09936268043518,9.481556676615494L243.4127696800232,9.418283428203324L243.65653067970277,9.374602659422417L243.8654686794281,9.316656355758257L244.00476067924498,9.27665694516886L244.07440667915344,9.273436145448422L244.10922967910767,9.266282584863138L245.15391967773436,9.186743599841208L245.29321167755126,9.134379248158726L245.32803467750549,9.098098176084266L245.57179567718504,9.130829177790798L245.60661867713927,9.14560531774979L246.1986096763611,9.145336747316893L246.4075476760864,9.14539710545274L246.4771936759949,9.136035374978794L246.5120166759491,9.125745733111383L246.89506967544554,9.068890547954116L246.99953867530823,9.035146604185687L247.48706067466736,9.062132560373177L247.62635267448425,9.060382602043445L247.6959986743927,9.050430420670818L248.11387467384338,9.032118375521913L248.39245867347717,9.013104396002174L248.56657367324829,8.993468850740102L248.63621967315672,8.973154484533984L248.7058656730652,8.952475016313022L249.611263671875,8.90966904299623L250.2032546710968,8.915955349435182L250.6211306705475,8.872020167145244L250.65595367050173,8.84175643175389L250.89971467018128,8.808609997084643L251.10865266990663,8.814173586499315L251.42205966949462,8.819051695279294L251.45688266944885,8.830152979908084L251.59617466926574,8.833470149475849L251.73546666908265,8.82025075738649L251.87475866889952,8.79724654759539L251.9792276687622,8.77222133501126L252.04887366867067,8.74977012275188L252.2229886684418,8.729548907149926L252.50157266807557,8.746253419766063L253.1283866672516,8.725371548333039L253.47661666679383,8.711228636876813L253.54626266670226,8.695644329706553L253.79002366638184,8.661749392046275L254.06860766601562,8.635969848301489L254.10343066596982,8.6170530444663L254.2078996658325,8.606462392092878L254.69542166519165,8.596289755754496L255.1829436645508,8.58648395305387L255.32223566436767,8.578026847789582L255.3570586643219,8.580335931150447L255.3918816642761,8.578409422871093L255.84458066368106,8.55579962244563L256.05351866340635,8.54382643551099L256.22763366317747,8.520536280299991L256.26245666313173,8.513787319124496L256.33210266304013,8.503346073860996L256.43657166290285,8.497893494820051L256.50621766281125,8.48825117411296L256.61068666267397,8.472962359954407L256.9937396621704,8.460097398199563L257.8991376609802,8.453000731781927L258.52595166015624,8.4242089262111L259.0482966594696,8.411332207866606L259.15276565933226,8.414143267106907L259.18758865928646,8.41289765931911L259.3268806591034,8.419691855734104L259.39652665901184,8.41789333928122L259.7447566585541,8.406878354521886L260.2322786579132,8.397927788055826L260.71980065727234,8.427512320126752L260.8590926570892,8.46172790210755L260.9635616569519,8.501464499884422L260.9983846569061,8.531698327108787L261.9386056556702,8.519313759404588L262.1475436553955,8.495281036751281L262.25201265525817,8.472623697971168L262.5654196548462,8.443460981185028L262.77435765457153,8.41866438569697L262.94847265434265,8.399240396475768L262.98329565429685,8.384906902920289L263.0181186542511,8.373638254402104L263.0877646541595,8.379165063427084L263.40117165374755,8.35861184430858L263.5056406536102,8.347123723868323L263.5752866535187,8.343690476830337L263.7145786533356,8.33983743016715L264.13245465278624,8.323623815436966L264.2021006526947,8.308737851673103L264.30656965255736,8.292106497758883L264.4806846523285,8.269365043569623L264.6199766521454,8.262607778594896L265.17714465141296,8.243628512002946L265.21196765136716,8.238147629263295L265.3512596511841,8.224891581818325L265.49055165100094,8.209185439505937" fill="none"></path></g></g></g></g><g opacity="0.2"><g><g><g><path style="fill: none;" stroke="rgb(255, 112, 67)" stroke-width="2px" d="M43.84215694236755,178.87422659837284L44.26003294181823,173.32076340650815L44.364501941680906,172.23435670436515L44.643085941314695,169.61271493898266L44.74755494117736,168.80036223818365L44.92166994094849,166.94519094880093L45.095784940719604,165.43292336705576L45.54848394012451,161.8732801645706L45.8270679397583,159.96877229898132L45.89671393966675,159.22587579365427L45.93153693962097,158.8146761307121L46.036005939483644,157.76766485606913L46.83693493843079,150.7963881797184L46.87175793838501,150.5212003073018L47.289633937835696,147.33829236096994L47.49857193756104,145.9768296318839L47.53339493751526,145.88018689976366L47.568217937469484,145.63337217325738L47.98609393692016,142.70025866113428L48.26467793655395,140.75063327449243L48.40396993637085,140.0179152397243L48.473615936279295,139.5164014273928L48.647730936050415,138.5973593693882L48.82184593582153,137.42667704054497L48.89149193572998,137.29417233961613L49.274544935226444,135.05960251551414L49.48348293495178,133.7290179963361L49.518305934906,133.54361689141456L50.005827934265135,130.46753014776186L50.040650934219364,130.16963848479804L50.11029693412781,130.01785797563457L50.35405793380737,128.6621964473852L50.56299593353271,127.38532577413594L50.87640293312073,125.92120815933527L51.01569493293763,125.07768718858642L51.120163932800295,124.63133752239287L51.18980993270874,124.2195050011776L51.32910193252563,123.81381647903027L51.36392493247986,123.7860234532036L51.538039932250975,122.67171824885509L51.572862932205204,122.58928845878472L51.78180093193055,121.47870129679063L52.58272993087768,117.7424642670178L52.652375930786135,117.44512635504293L52.68719893074035,117.27043110257455L52.72202193069458,117.09639507747397L52.82649093055725,116.57837421185263L52.896136930465694,116.34268724331491L53.383658929824826,114.63876908120142L53.418481929779055,114.52783429974716L53.4881279296875,114.30725682247953L53.557773929595946,114.0369999707741L53.6274199295044,113.66654055916229L53.76671192932129,113.18744047733617L53.836357929229735,112.92522619951797L54.04529592895508,111.99998740425599L54.184587928771975,111.39423656052713L54.39352592849732,110.64909868214954L54.463171928405764,110.40423526865197L54.60246392822266,109.91967678422043L55.15963192749024,107.71682898105723L55.36856992721558,107.04433795861178L55.50786192703247,106.55706345742487L55.57750792694092,106.29271328293498L56.16949892616272,104.92589762762236L56.20432192611695,104.80024889131869L56.482905925750735,104.0758371213849L56.51772892570496,103.90905259733017L56.69184392547607,103.39076804076171L56.7266669254303,103.27055133796875L57.00525092506409,102.4956954898505L57.21418892478943,101.92717780785529L57.24901192474365,101.81202397124707L57.42312692451477,101.41168837532632L57.73653392410278,100.78194165540936L58.0499409236908,100.16915026339234L58.328524923324586,99.47456193957805L58.36334792327881,99.36847907155084L58.920515922546386,97.87221753029598L58.99016192245483,97.59056922967488L59.93038292121887,95.51123426614367L60.000028921127324,95.43832371926442L60.06967492103577,95.21350081774813L60.17414392089844,94.82168243941942L60.27861292076111,94.62193654697444L60.31343592071533,94.53056763379664L60.731311920166014,93.6017426416538L61.42777191925049,92.09437971152511L61.810824918746945,91.39464941424194L61.845647918701175,91.34818706935903L62.05458591842651,90.93071156187534L62.263523918151854,90.3794128987272L62.82069191741944,89.75087915716699L62.855514917373654,89.63952247019733L62.9251609172821,89.48608070806699L63.343036916732785,88.64859826000725L63.7957359161377,87.66344888155913L64.07431991577148,87.19120476435819L64.17878891563416,87.01231682583057L64.66631091499329,86.30151150876827L64.84042591476441,85.92968090423142L64.9797179145813,85.69267548095809L65.15383291435242,85.45501083031695L65.67617791366577,84.66449173993965L66.05923091316224,84.05845083616896L66.19852291297913,83.77767271567336L67.20838991165161,82.4451105143919L67.27803591156005,82.2980237040872L67.6262659111023,81.71848374050228L67.87002691078186,81.34923730724722L68.35754891014099,80.48327623689829L68.91471690940857,79.8746511618458L69.01918590927124,79.77152163242636L69.43706190872193,79.17070180940868L69.61117690849305,78.9683717456819L69.71564590835571,78.84245931843111L69.78529190826416,78.79560143712752L70.16834490776063,78.37794134598084L70.41210590744018,78.00381663020403L70.55139790725707,77.94229753224045L70.62104390716553,77.87141740565403L70.93445090675354,77.40932538991729L71.59608790588379,76.51491206637388L72.08360990524291,76.0052238346816L72.11843290519715,75.93434370809518L72.18807890510558,75.81866248959273L72.32737090492249,75.58864487641813L72.64077790451049,75.19173726280997L73.05865390396117,74.77325972972722L73.19794590377808,74.6274386359687L73.26759190368652,74.54239830552183L73.3720609035492,74.440402647175L73.44170690345764,74.43080429669976L73.5113529033661,74.3466605154731L73.85958290290833,73.90584835916911L73.99887490272522,73.71696653374556L74.24263590240479,73.55437469575008L74.31228190231323,73.47347431317303L74.48639690208434,73.24822950614134L74.73015790176392,73.283353140298L74.90427290153502,73.10929074610272L74.93909590148927,73.06984258041325L75.35697190093995,72.67322502684692L75.70520190048218,72.29005571158382L75.77484790039063,72.19069696270822L75.80967090034486,72.12941518659704L76.05343190002442,72.03000369953202L76.22754689979553,71.91324134814636L76.36683889961243,71.78811999373693L76.40166189956665,71.75115052295041L76.81953789901733,71.38142944599053L77.09812189865112,71.04799224335466L77.23741389846802,70.97363139626623L77.41152889823913,70.79664203255788L77.48117489814759,70.70371734279206L78.14281189727784,70.20212442317643L78.21245789718628,70.13388120606123L78.38657289695739,69.98631975205171L78.42139589691162,69.93044364035654L78.49104189682006,69.97321431197975L78.59551089668274,69.82834250563087L78.73480289649964,69.67273847773413L78.94374089622497,69.43027465185537L79.08303289604187,69.29890382199915L79.25714789581298,69.15748636705757L79.46608589553833,69.00647056164075L79.570554895401,68.88849523189833L79.74466989517212,68.72877762522648L80.0232538948059,68.51837861851777L80.16254589462281,68.47779658175568L80.3018378944397,68.41630385288681L80.61524489402771,68.07445490903774L80.85900589370728,67.86057518182702L80.96347489356995,55.299999713897705L80.99829789352417,41.47499978542328L81.31170489311218,42.731803577596565L81.65993489265442,39.499980960573566L82.18227989196777,40.70694716374078L82.32157189178466,39.40125506997106L82.70462489128113,36.866657686233566L82.73944789123534,37.221137426449786L82.87873989105225,38.01872343420996L83.33143889045715,35.664490658303976L84.16719088935851,31.81236145727098L84.89847388839722,30.803057988066485L84.93329688835144,30.53522709307458L85.28152688789368,30.08318170242319L85.56011088752746,31.184196883036748L85.5949338874817,31.15785415741925L85.69940288734435,31.888330819136854L86.15210188674928,32.4426619281769L86.22174788665771,33.1072422222087L86.60480088615418,32.73897144545799L86.70926988601686,32.31387526960248L86.84856188583375,31.716166999760844L87.12714588546753,31.378088836455618L87.3709068851471,31.2370141797453L87.40572988510131,31.069095784617957L87.51019888496398,31.453715400090232L87.61466788482666,31.682282713055656L88.03254388427735,31.03845489656237L88.24148188400268,31.204975729669968L88.38077388381957,31.267760544179737L88.72900388336181,31.599984768458853L88.83347288322449,31.4260014815477L89.32099488258362,31.665538337913404L89.4254638824463,31.956178499831367L89.5995788822174,31.869687869175323L89.70404788208008,31.819428374653853L90.01745488166809,31.781615092836546L90.40050788116456,31.61451413964528L90.57462288093566,31.443141393110636L90.64426888084412,31.61414497231931L91.48002087974548,31.208904724782087L91.75860487937926,31.206267815310866L91.82825087928772,31.271900492049554L91.9327198791504,31.23748882345012L92.14165787887573,30.998901254494058L92.17648087882995,31.0741586508027L92.42024187850951,31.085312777865965L92.69882587814331,31.003990489773514L92.8381178779602,30.964753276841748L92.97740987777709,30.846540625246917L93.22117087745667,30.704833110263507L93.2908168773651,30.60971978563657L93.49975487709045,30.713719495181522L93.81316187667846,30.938094122087705L94.09174587631226,30.575940975310232L94.1613918762207,30.487736353497894L94.26586087608337,30.393334994428187L94.37032987594604,30.515292057472152L94.40515287590026,30.436422095187936L94.64891387557984,30.246590982354746L94.82302887535094,30.491243443094618L95.06678987503052,30.442249665119334L95.38019687461852,30.51492289014618L95.51948887443542,30.48757813892962L95.58913487434387,30.40841811660357L95.90254187393188,30.543612465193064L96.28559487342835,30.22061742406322L96.63382487297058,29.857093084360713L96.70347087287904,29.847362888411908L96.94723187255859,29.813926876316827L97.12134687232972,29.731180657109917L97.22581587219237,29.65874475393548L97.50439987182617,30.089694868817105L98.16603687095642,29.71675676230234L98.54908987045289,29.56252392733063L99.14108086967468,29.341788235494732L99.28037286949157,29.223997489415297L99.59377986907958,28.93965954113355L99.76789486885072,28.87661103567666L99.80271786880493,28.87434329353141L99.83754086875915,28.923020642370147L100.56882386779785,28.72854856886761L100.95187686729432,28.419370933366963L101.05634586715699,28.463222737873366L101.26528386688233,28.170815846609685L101.30010686683654,28.12263951057048L101.61351386642457,27.882759855973518L101.8224518661499,27.9725729925633L101.85727486610412,27.97207197976377L102.24032786560059,28.146978184989848L102.37961986541748,28.14376115543496L102.55373486518859,28.095242021164495L102.62338086509705,28.138197276450683L102.93678786468506,27.999996851063997L103.07607986450195,27.997808216202884L103.11090286445616,28.127465054902814L103.18054886436462,28.03944501675346L103.21537186431884,28.08203110471368L103.2850178642273,28.16683411330814L103.66807086372376,28.200454709066207L103.7377168636322,28.198767087004626L104.016300863266,28.31726979864129L104.05112386322021,28.27463097249165L104.15559286308289,28.23035726246985L105.3743978614807,27.8075551978543L106.10568086051941,27.841202162707077L106.38426486015321,27.68781313876616L106.80214085960388,27.501146317298435L106.90660985946654,27.501726437382104L107.22001685905457,27.466892863267276L107.5682468585968,27.360836364334773L107.84683085823059,27.542677641470164L107.95129985809326,27.578750563036465L108.05576885795594,27.578987884888875L108.26470685768128,27.4386515628305L108.43882185745238,27.36998644019991L108.47364485740663,27.370329238431168L108.61293685722352,27.441314841396434L108.64775985717773,27.476332999174247L108.8915208568573,27.512274075266987L109.30939685630797,27.514304495559827L110.00585685539245,27.219524385772047L110.35408685493469,27.0937174349001L110.98090085411071,27.041269305517517L111.22466185379028,26.919022182431718L111.46842285346985,26.861801246906225L111.74700685310364,26.86892090247852L111.81665285301207,26.901882270868782L111.95594485282898,26.87416835232625L112.16488285255433,26.78688664882884L112.30417485237122,26.7293492841668L112.68722785186769,26.74045067304064L112.79169685173034,26.68299241566274L112.96581185150147,26.778448538520934L113.41851085090637,26.879494909458117L114.25426284980774,26.638771443830365L115.09001484870912,26.77625990365982L115.12483784866333,26.748967890632684L115.47306784820556,26.7859373614192L115.57753684806823,26.76075487596904L115.75165184783936,26.765184883880693L116.03023584747314,26.799622921574837L116.37846584701538,26.726501421937883L116.72669584655762,26.735493283234746L116.97045684623718,26.68826623460518L118.01514684486388,26.55955868331489L118.15443884468078,26.486068016351965L118.18926184463501,26.4613074364172L118.3285538444519,26.41423860235591L119.47771284294129,26.301220662419382L119.61700484275818,26.355831057568366L119.65182784271241,26.332151610516803L119.82594284248351,26.26380291702276L120.27864184188843,26.132933099966067L120.55722584152223,26.0949879726752L120.66169484138489,26.07484198431507L121.35815484046935,26.19722095287443L121.63673884010315,26.207188470675646L121.81085383987427,26.142689665009584L121.88049983978271,26.0982313713248L121.98496883964539,26.031807621744747L122.05461483955384,26.034550007594817L122.08943783950805,26.08269997453931L122.47249083900451,26.189863975449725L122.50731383895874,26.214229018963806L122.54213683891297,26.215415628225855L122.61178283882141,26.240940911907273L122.68142883872986,26.220214803463477L122.85554383850098,26.203206737374103L122.92518983840942,26.228521068297823L123.2037738380432,26.169559772521325L124.14399483680725,26.023527726005113L124.17881783676147,26.002564295708908L124.56187083625794,25.99496999643179L124.59669383621215,25.996288451167402L124.9449238357544,25.965621194017103L124.97974683570861,25.945106038331005L125.08421583557129,25.905499658073268L125.32797683525087,25.893422612695076L125.57173783493042,25.859854755126435L126.02443683433533,25.856505880097984L126.30302083396911,25.803846797957704L126.33784383392334,25.805270729072163L126.5816048336029,25.79401112563005L126.68607383346557,25.75617147471803L126.72089683341979,25.757621774927202L126.75571983337403,25.73802953755603L126.86018883323669,25.72141700788734L127.52182583236694,38.28460301619316L127.80040983200072,32.91664640562885L127.83523283195495,32.67726776383142L127.93970183181763,32.07402198410023L128.1834628314972,31.10624983906746L128.28793183135986,33.17999455451968L128.35757783126832,33.628374641006076L128.46204683113098,33.87123400330552L128.60133883094787,33.30566965991807L128.91474583053588,31.82356832252367L129.12368383026123,29.993210351265134L129.29779883003235,29.378124848008156L129.43709082984924,29.68308342835485L129.5067368297577,28.835000604220795L129.85496682929994,26.958734039068304L129.88978982925414,26.62592969470552L130.02908182907103,26.023527726005113L130.20319682884215,24.884989323616082L130.23801982879638,25.523068677462106L130.2728428287506,25.546194373524713L130.3773118286133,25.03052035733276L130.69071882820128,24.459603087718733L130.7255418281555,24.489980284827197L130.76036482810974,24.258960646053538L130.93447982788086,24.162607973975128L131.10859482765198,23.83621131962741L131.21306382751465,24.397029225966662L131.38717882728577,23.636307212614156L131.4568248271942,23.69998857634414L131.5612938270569,24.434895245973394L131.80505482673647,25.41361056531173L132.22293082618714,24.660799280372885L132.74527582550047,23.91811372780353L133.16315182495117,23.22600409889219L133.5113818244934,23.016738963256103L133.6506738243103,23.11483199558552L133.85961182403565,23.112537884345556L134.1033728237152,22.859157253255944L134.13819582366943,22.88275759302337L134.45160282325745,23.476405022279323L134.48642582321168,23.36618220638229L135.1480628223419,23.35948445632539L135.18288582229616,23.259229158229573L135.49629282188417,23.42253296178228L135.5659388217926,23.79715869035863L136.4365138206482,23.435691140043673L136.54098282051086,23.482179854021297L136.64545182037352,23.527640173305144L136.85438982009887,23.517250749988534L136.99368181991576,23.38121259036825L137.02850481987,23.396163867070072L137.6204958190918,23.08727629161126L137.72496481895448,23.04165775775914L137.96872581863403,23.144734548989163L138.0731948184967,23.012493539007437L138.14284081840515,22.867779947226836L138.3517788181305,22.956327367270433L138.8044778175354,23.055343317914776L139.15270781707764,22.86901929467831L139.2571768169403,22.830995060103305L139.36164581680296,22.793630052896106L139.64022981643677,22.74806425723341L139.95363681602478,22.867278934427304L140.47598181533812,22.407270077172825L140.92868081474302,22.300633458156653L141.5903178138733,22.4117528232739L141.69478681373596,22.38332693917414L142.1823088130951,22.489515283580204L142.2171318130493,22.437805488849563L142.42606981277464,22.320621231948508L142.6350078125,22.082877474023235L142.87876881217954,21.925137549454803L142.9135918121338,21.998443632754743L142.94841481208803,22.010863476364193L143.01806081199646,22.035465841730684L143.15735281181335,21.96440113148128L143.29664481163024,21.83519256739146L143.43593681144714,21.7670284575604L143.47075981140136,21.720777065435186L143.5055828113556,21.73335512361291L143.67969781112672,21.795401603470737L143.74934381103515,21.762097436849217L144.0975738105774,21.76942804517921L144.34133481025694,21.573690255130487L145.31637880897523,21.265171846997646L145.49049380874632,21.27324078997958L145.80390080833436,21.122963319214705L145.90836980819702,21.005805431408362L145.97801580810548,20.979357229412017L146.22177680778503,20.913460861726207L146.39589180755615,20.77486489991884L146.67447580718994,20.626987016772773L146.81376780700685,20.579021633491266L146.84859080696106,20.591467846195428L146.95305980682372,20.58012913546918L147.0227058067322,20.604784239025093L147.26646680641176,20.451474322368313L147.68434280586243,20.177024784603645L147.7539888057709,20.109097996624996L148.52009480476377,20.243738594225533L148.62456380462646,20.145619192801405L149.66925380325318,20.194296541640142L149.94783780288697,20.41134056021633L151.13181980133055,20.047262469524867L151.30593480110167,19.982684556574668L151.68898780059814,19.945530502125166L152.00239480018615,19.887940399273702L152.24615579986573,19.92480439368137L152.31580179977416,19.869851200301127L152.42027079963682,19.78797516121972L152.48991679954528,19.73376030249142L152.6640317993164,19.637143939465886L152.69885479927063,19.64803437558203L152.97743879890442,19.65974225363425L153.01226179885865,19.63334678982733L153.3604917984009,19.702908461678135L153.49978379821778,19.63550905559373L153.84801379776002,19.559961599243252L153.98730579757688,19.56602649102706L154.1265977973938,19.607663291577637L154.40518179702758,19.51349925436034L154.5792967967987,19.425004572506168L155.10164179611206,19.646953242698828L155.1364647960663,19.622588199184747L155.34540279579164,19.511653417730486L155.5891637954712,19.378621334907393L155.7284557952881,19.318025155258738L156.07668579483033,19.185731407087587L156.11150879478453,19.16271118740383L156.14633179473876,19.139743705909495L156.18115479469301,19.21610860419605L156.39009279441834,19.17766246410565L156.4597387943268,19.16497892954908L156.56420779418946,19.12977618810828L156.70349979400635,19.039831206044937L156.807968793869,19.102484175081145L157.19102179336548,19.05132813133946L157.60889779281615,18.94830407829886L157.9223047924042,19.036666914679472L157.9571277923584,19.015228840678446L158.13124279212954,18.939602277043832L158.23571179199217,18.87615823516626L158.44464979171752,18.87317852746378L158.58394179153444,18.912020203974862L158.7232337913513,18.859176538171596L159.00181779098511,18.966050479040177L159.10628679084778,18.934249350817254L159.31522479057313,18.990731951690805L159.35004779052733,18.97024316509942L159.6286317901611,18.837474773223448L159.7331007900238,18.77722139180605L159.76792378997803,18.75725998710891L160.1857997894287,18.753172777428517L160.63849878883363,18.643661927088715L160.67332178878783,18.624333380664666L160.70814478874206,18.60505757243004L160.7429677886963,18.643029068815622L161.23048978805542,18.77157840553764L162.0662417869568,18.70845079279661L162.17071078681946,18.762481067861927L162.2403567867279,18.725327013412425L162.31000278663635,18.77028631989674L162.414471786499,18.76931066339239L162.55376378631593,18.695635412766478L162.6582327861786,18.667816017845098L162.6930557861328,18.64956860430425L163.31986978530884,18.645824192855116L163.66809978485108,18.626258324578657L164.08597578430175,18.624096058812256L164.26009078407287,18.588655995519048L164.2949137840271,18.571278762103702L164.39938278388976,18.54512062014919L164.78243578338623,18.484392595026975L164.81725878334044,18.492857074429594L165.23513478279114,18.517433070701372L165.26995778274537,18.52576570463043L165.33960378265382,18.54235186520441L165.37442678260803,18.575761508204778L165.4788957824707,18.525238322736186L165.51371878242492,18.53351821847582L165.54854178237915,18.516747474238855L165.79230278205873,18.549366044397857L165.86194878196716,18.516061877776337L166.45393978118898,18.48220396016586L166.5235857810974,18.498394584319158L166.55840878105164,18.506489896395806L166.69770078086853,18.490009212200675L166.8021697807312,18.465644168686595L167.394160779953,18.62435974975938L167.60309877967833,18.623357724160314L167.9513287792206,18.535390424200386L168.50849677848817,18.588234090003652L168.82190377807618,18.67931294313962L168.8915497779846,18.694264219841443L168.96119577789307,18.686142538670083L169.1353107776642,18.65460510139428L169.23977977752688,18.60838007836378L169.55318677711486,18.60708799272288L169.65765577697755,18.56146945887076L169.7621247768402,18.561126660639502L170.70234577560424,18.514242410241195L170.9112837753296,18.469915962029972L171.01575277519225,18.426011419334145L171.15504477500915,18.38964843772601L171.3639827747345,18.368131256440847L171.46845177459718,18.346587706060973L171.71221277427674,18.26798143472388L171.78185877418517,18.282616282289155L171.88632777404786,18.239977456139513L172.47831877326968,18.129411842011223L172.61761077308654,18.17964496743798L172.89619477272032,18.153196765441635L172.93101777267458,18.16042189739278L173.24442477226256,55.299999713897705L173.4533627719879,23.69998857634414L173.48818577194214,20.73749989271164L173.52300877189634,18.43334202766414L173.62747777175903,27.649999856948853L173.83641577148438,23.04165775775914L174.11499977111816,25.523068677462106L174.39358377075195,23.58383271413686L174.53287577056884,24.739458289899403L174.6025217704773,24.193749874830246L174.9159287700653,22.00714543400977L175.0900437698364,22.529622676637473L175.29898176956175,20.737473523616927L175.5079197692871,20.109071627530284L175.75168076896665,19.317128606038523L176.3784947681427,17.623072485347393L177.04013176727292,16.590010461807196L177.17942376708984,16.735515126429164L177.31871576690673,17.33984203904356L177.91070676612853,18.638150786293863L178.11964476585388,18.629448985038835L178.32858276557923,18.43334202766414L178.4330517654419,18.24899568653109L179.05986576461794,17.281249910593033L179.1991577644348,17.52239528173618L179.44291876411435,17.4550486138412L179.54738776397704,17.16730905234158L179.9304407634735,17.334990125616514L180.27867076301573,16.889668854116735L180.31349376296996,16.94238067444644L180.41796276283264,17.23117499973455L180.80101576232911,17.122718913183235L181.32336076164245,16.85106449945806L181.35818376159668,16.77905050179902L181.81088276100158,17.12730713566316L182.01982076072693,17.0489909243679L182.0894667606354,17.132132679995493L182.12428976058962,17.173242098651826L182.33322776031494,16.885502537152206L182.68145775985718,16.772985610015212L182.78592675971984,16.791074808987787L182.8903957595825,16.908259065888842L182.92521875953673,16.847662886240187L183.06451075935362,16.609549960988943L183.4127407588959,16.42014075367115L183.8654397583008,16.355061827921418L183.900262758255,16.481923542581853L184.49225375747682,16.47053209366618L184.87530675697326,16.50744882626327L185.18871375656127,16.39709416489268L185.36282875633242,16.241384660617086L185.53694375610354,16.24631568132827L185.74588175582883,16.359570943117205L186.05928875541687,16.6349433991968L186.33787275505065,16.428657971263192L186.6512797546387,16.11723896271201L187.03433275413514,16.088549387665125L187.20844775390626,16.16356946212136L187.31291675376892,16.24860979256823L187.87008475303648,16.35353242042811L188.14866875267026,16.306410848177393L188.28796075248718,16.283496104872484L188.39242975234987,16.23487149422317L188.49689875221253,16.18687974184695L188.53172175216673,16.150121223818132L188.8103057518005,15.861696065855995L188.879951751709,15.791211475690261L189.26300475120544,15.594366183663624L189.54158875083922,15.564173570218145L189.9246417503357,15.553098550439017L190.0639337501526,15.538859239294425L190.3425177497864,15.398602024520187L191.1434467487335,15.140369480003528L191.35238474845886,15.072179001077757L191.49167674827575,15.010000675746369L192.0140217475891,14.797887677881363L192.22295974731443,14.63524310169646L192.32742874717712,14.706386919229999L192.39707474708558,14.652989502437777L192.64083574676513,14.568291970222162L192.74530474662782,14.588965340476534L192.88459674644469,14.583533306965819L193.0238887462616,14.578206749833953L193.0587117462158,14.55262872796311L193.16318074607847,14.52467748756817L193.6158797454834,14.34404918878954L193.68552574539186,14.295239994477242L193.7551717453003,14.29365784879451L193.89446374511718,14.197410653094948L194.0337557449341,14.194905589097289L194.10340174484253,14.285826227664984L194.3819857444763,14.370708343543583L194.73021574401855,14.317126343088376L195.21773774337768,14.26248957884468L195.32220674324034,14.238651917224843L195.42667574310303,14.301726791776446L196.01866674232483,14.310454962126187L196.5410117416382,14.278943893945097L196.7151267414093,14.173177455054429L196.74994974136354,14.193112490656858L196.88924174118043,14.150289080844232L197.02853374099732,14.067542861637321L197.06335674095152,14.047027705951223L197.1678257408142,14.066145299617574L197.34194074058533,14.004547094369855L197.37676374053956,13.984374736915015L197.72499374008177,13.864263510500905L198.00357773971558,13.90265691240188L198.14286973953247,13.824999928474426L198.21251573944093,13.786501050194602L198.42145373916628,13.786791110236436L198.70003773880006,13.673931384868183L198.73486073875426,13.65526206581194L198.94379873847961,13.581824137038438L199.0482677383423,13.526897312752908L199.53578973770144,13.678704191011093L199.64025873756407,13.624621177756353L199.6750817375183,13.606690193352051L199.779550737381,13.589444805410267L200.406364736557,13.524075819618702L200.5456567363739,13.52560522711201L200.78941773605348,13.44096043308582L200.99835573577883,13.409212043052321L201.1376477355957,13.480224015112299L201.17247073554992,13.463453270875334L201.2769397354126,13.516244198489176L201.62516973495482,13.418362118917457L201.90375373458863,13.355208137081718L202.11269173431398,13.291975047961841L202.21716073417664,13.277313831301853L202.3216297340393,13.262758091020714L202.39127573394777,13.23106243917664L202.4609217338562,13.199577740090263L203.0180897331238,13.114379195075117L203.08773573303222,13.083791045208955L203.15738173294065,13.053361109911066L203.1922047328949,13.038225249546258L203.22702773284914,13.02308938918145L203.4707887325287,13.013622884179767L203.50561173248292,12.998671607477945L204.13242573165894,13.139957216945959L204.2368947315216,13.095709876018873L204.8288857307434,13.033267859740363L205.2815847301483,13.02941797191238L205.73428372955323,12.96650131192905L205.8039297294617,12.938761024291807L206.46556672859194,12.884018783669262L206.6048587284088,12.859126358260937L206.84861972808838,12.823185282168197L206.98791172790527,12.884308843711096L207.1620267276764,12.960067252819272L208.17189372634886,12.861104040364353L208.24153972625734,12.863028984278344L208.58976972579956,12.845282583537028L208.62459272575379,12.832625418075168L209.73892872428894,12.757473498145373L210.57468072319028,12.704049712258438L210.99255672264098,12.639999181202484L211.06220272254944,12.616768008761028L211.23631772232056,12.60962198409402L211.58454772186278,12.5955408875177L211.68901672172547,12.586390811652564L211.7238397216797,12.57499936273689L212.00242372131348,12.58396485493904L212.0720697212219,12.561419278960102L212.24618472099303,12.579403001553828L212.45512272071838,12.561472017149526L213.1864057197571,12.596648389495613L213.5346357192993,12.55949433504611L213.67392771911622,12.563871604768337L213.81321971893308,12.568169767206427L214.0569807186127,12.493176061844906L214.19627271842955,12.474216682746828L214.23109571838378,12.46361630667252L214.30074171829224,12.442494661808041L214.33556471824647,12.455389149122311L214.75344071769715,12.654554921483623L215.06684771728516,12.743867045273873L215.44990071678163,12.69666636573902L215.8329537162781,12.605139237992944L215.90259971618653,12.607143289191072L216.07671471595765,12.578400975954764L216.14636071586608,12.557991296647515L216.3204757156372,12.574261028084948L216.52941371536255,12.580299550774043L216.7731747150421,12.576212341093651L216.91246671485902,12.536131317131094L217.22587371444703,12.468731911046689L217.74821871376037,12.365734227100802L217.7830417137146,12.356083138436134L217.9223337135315,12.339154179630896L218.06162571334838,12.300813515919344L218.16609471321104,12.293667491252336L218.89737771224975,12.20227220897982L219.14113871192933,12.15844677356813L219.21078471183776,12.160978206660502L219.2804307117462,12.142598947646093L220.0117137107849,14.55262872796311L220.04653671073913,15.207505195140811L220.15100571060182,18.032610895322705L220.22065171051025,17.696009401321362L220.35994371032717,15.255180518380485L220.39476671028137,14.746652526855542L220.56888171005247,18.16999387877331L220.63852770996095,17.93512435217167L220.70817370986938,18.433315658569427L220.8822887096405,18.22383957017564L221.54392570877076,16.677740439914714L221.7528637084961,15.628250470368812L221.82250970840454,15.188044803243201L221.92697870826723,15.693223919739694L222.2403857078552,14.324720642365492L222.62343870735168,13.825026297569138L222.9368457069397,13.153880098954005L222.9716687068939,13.293240764508027L223.1109607067108,13.056947306791926L223.45919070625305,13.356342008154343L223.70295170593263,13.05077693862927L223.8422437057495,13.289153554827635L224.08600470542908,13.621694208243298L224.43423470497132,13.25685141380518L224.50388070487978,13.077699784330434L224.538703704834,12.989943437128204L224.67799570465087,12.650309497234957L224.74764170455933,12.487111170061098L224.8172877044678,12.504145605245185L224.852110704422,12.599997264524063L224.92175670433042,12.442494661808041L225.3048097038269,12.127199396334163L226.21020770263672,11.649496876527792L226.4887917022705,11.869256911859338L226.59326070213316,11.69806874898768L226.66290670204162,11.849981103624714L226.69772970199585,11.924869332607386L226.94149070167543,11.66882542295184L227.0807827014923,11.45855826171669L227.15042870140076,11.479679906581168L227.25489770126342,11.449803722272236L227.91653470039367,11.914242587438366L228.16029570007322,11.803149591415831L228.2299416999817,11.92742713479447L228.33441069984437,11.895942435708093L228.6826406993866,11.452071464417486L229.10051669883728,11.652502953324984L229.97109169769288,11.241303290382803L231.3291886959076,10.931387320230215L231.6774186954498,10.700710479687814L232.16494069480896,10.744430438720656L232.33905569458005,10.822773019110628L232.40870169448854,10.765077439880315L232.86140069389344,10.546925919326213L233.41856869316103,10.608286802721523L233.5230376930237,10.598055593973186L233.76679869270325,10.752789441744426L233.87126769256594,10.741714421965298L234.1150286922455,10.760014573695571L234.35878969192507,10.649422590472568L234.4632586917877,10.703215543685474L234.70701969146728,10.721410219036898L234.81148869132997,10.64897431586246L235.05524969100952,10.48371919930105L235.12489569091795,10.498459523245174L235.22936469078064,10.611292879518714L235.26418769073487,10.588061707077259L235.29901069068907,10.62532123790561L235.3338336906433,10.602195541843003L235.57759469032285,10.62091759908867L235.82135569000246,10.639112274440095L236.13476268959045,10.669885007969242L236.27405468940736,10.69588493535548L236.41334668922423,10.665006725447483L237.1098066883087,10.409384721307333L237.52768268775938,10.329038089719234L237.91073568725585,10.271474355962482L238.50272668647767,10.104821677381324L238.85095668601988,10.023130221962901L239.09471768569946,9.996919341818966L239.19918668556213,9.992805763043862L239.54741668510437,9.915860744673637L239.5822396850586,9.898799940394838L239.65188568496703,9.864836546405513L239.86082368469238,9.811280915045018L240.10458468437193,9.742457577846153L241.00998268318176,9.646394965809577L241.46268168258666,9.623084686083985L241.95020368194582,9.543291805484841L242.12431868171694,9.554867838063501L242.2287876815796,9.595423505730878L242.50737168121339,9.563147733803135L242.7163096809387,9.518847654686624L243.09936268043518,9.365326785272146L243.4127696800232,9.323373555585022L243.65653067970277,9.309081506251005L243.8654686794281,9.229736900261969L244.00476067924498,9.216657829284713L244.07440667915344,9.268604945867764L244.10922967910767,9.255552243985221L245.15391967773436,9.067435122308325L245.29321167755126,9.055832720634953L245.32803467750549,9.043676567972625L245.57179567718504,9.179925680350607L245.60661867713927,9.167769527688279L246.1986096763611,9.144933891667506L246.4075476760864,9.145487642656462L246.4771936759949,9.121992779267885L246.5120166759491,9.110311270310376L246.89506967544554,8.983607770218214L246.99953867530823,8.984530688533141L247.48706067466736,9.102611494654411L247.62635267448425,9.057757664548944L247.6959986743927,9.03550214861184L248.11387467384338,9.004650307798556L248.39245867347717,8.984583426722565L248.56657367324829,8.964015532847043L248.63621967315672,8.942682935224866L248.7058656730652,8.921455813981538L249.611263671875,8.845460083020953L250.2032546710968,8.925384809093657L250.6211306705475,8.806117393710338L250.65595367050173,8.79636082866682L250.89971467018128,8.758890345080772L251.10865266990663,8.822518970621331L251.42205966949462,8.826368858449314L251.45688266944885,8.846804906851276L251.59617466926574,8.838445903827505L251.73546666908265,8.8004216692525L251.87475866889952,8.762740232908754L251.9792276687622,8.734683516134965L252.04887366867067,8.716093304362857L252.2229886684418,8.699217083747044L252.50157266807557,8.771310188690222L253.1283866672516,8.694048741183451L253.47661666679383,8.690014269692483L253.54626266670226,8.672267868951167L253.79002366638184,8.610906985555857L254.06860766601562,8.597300532684358L254.10343066596982,8.588677838713465L254.2078996658325,8.590576413532744L254.69542166519165,8.581030801246925L255.1829436645508,8.57177524900294L255.32223566436767,8.56534118989316L255.3570586643219,8.583799556191707L255.3918816642761,8.575519660452073L255.84458066368106,8.521884921807441L256.05351866340635,8.525866655108985L256.22763366317747,8.485601047483442L256.26245666313173,8.503663877361305L256.33210266304013,8.487684205965706L256.43657166290285,8.489714626258547L256.50621766281125,8.473787693052373L256.61068666267397,8.450029138716673L256.9937396621704,8.4407999555674L257.8991376609802,8.44235573215542L258.52595166015624,8.381021217854823L259.0482966594696,8.392017130349814L259.15276565933226,8.41835985596731L259.18758865928646,8.411029247637316L259.3268806591034,8.429883150356545L259.39652665901184,8.415195564601845L259.7447566585541,8.390355877382945L260.2322786579132,8.384501938356834L260.71980065727234,8.471889118233094L260.8590926570892,8.513051275078851L260.9635616569519,8.561069396549783L260.9983846569061,8.577049067945381L261.9386056556702,8.50073690784825L262.1475436553955,8.459231952771233L262.25201265525817,8.438637689800998L262.5654196548462,8.399716906005779L262.77435765457153,8.38146949246493L262.94847265434265,8.370104412643968L262.98329565429685,8.363406662587067L263.0181186542511,8.356735281624879L263.0877646541595,8.387455276964602L263.40117165374755,8.327782015630874L263.5056406536102,8.32989154320785L263.5752866535187,8.338540606273455L263.7145786533356,8.33405786017238L264.13245465278624,8.299303393341688L264.2021006526947,8.286408906027418L264.30656965255736,8.267159466887506L264.4806846523285,8.235252862285733L264.6199766521454,8.252471881132806L265.17714465141296,8.21515961211503L265.21196765136716,8.229926305153867L265.3512596511841,8.20500751065083L265.49055165100094,8.185626226037357" fill="none"></path></g></g></g></g></g></g><g transform="translate(51, 176)" clip-path="url(#clip_1)"><clipPath id="clip_1"><rect width="278" height="23"></rect></clipPath><g><g><line x1="0" y1="0" x2="0" y2="5" style="visibility: inherit;" fill="rgb(0, 0, 0)" stroke="rgb(204, 204, 204)" stroke-width="1px"></line><line x1="34.82299995422363" y1="0" x2="34.82299995422363" y2="5" style="visibility: inherit;" fill="rgb(0, 0, 0)" stroke="rgb(204, 204, 204)" stroke-width="1px"></line><line x1="69.64599990844727" y1="0" x2="69.64599990844727" y2="5" style="visibility: inherit;" fill="rgb(0, 0, 0)" stroke="rgb(204, 204, 204)" stroke-width="1px"></line><line x1="104.4689998626709" y1="0" x2="104.4689998626709" y2="5" style="visibility: inherit;" fill="rgb(0, 0, 0)" stroke="rgb(204, 204, 204)" stroke-width="1px"></line><line x1="139.29199981689453" y1="0" x2="139.29199981689453" y2="5" style="visibility: inherit;" fill="rgb(0, 0, 0)" stroke="rgb(204, 204, 204)" stroke-width="1px"></line><line x1="174.11499977111816" y1="0" x2="174.11499977111816" y2="5" style="visibility: inherit;" fill="rgb(0, 0, 0)" stroke="rgb(204, 204, 204)" stroke-width="1px"></line><line x1="208.9379997253418" y1="0" x2="208.9379997253418" y2="5" style="visibility: inherit;" fill="rgb(0, 0, 0)" stroke="rgb(204, 204, 204)" stroke-width="1px"></line><line x1="243.76099967956543" y1="0" x2="243.76099967956543" y2="5" style="visibility: inherit;" fill="rgb(0, 0, 0)" stroke="rgb(204, 204, 204)" stroke-width="1px"></line><line x1="278.58399963378906" y1="0" x2="278.58399963378906" y2="5" style="visibility: inherit;" fill="rgb(0, 0, 0)" stroke="rgb(204, 204, 204)" stroke-width="1px"></line></g><g transform="translate(0, 8)"><text style="text-anchor: middle; visibility: hidden; font-family: Roboto, sans-serif; font-size: 12px; font-weight: 200;" x="0" y="0" dx="0em" dy="0.95em" fill="rgb(33, 33, 33)" stroke="none" stroke-width="1px">-1k</text><text style="text-anchor: middle; visibility: inherit; font-family: Roboto, sans-serif; font-size: 12px; font-weight: 200;" x="34.82299995422363" y="0" dx="0em" dy="0.95em" fill="rgb(33, 33, 33)" stroke="none" stroke-width="1px">0</text><text style="text-anchor: middle; visibility: inherit; font-family: Roboto, sans-serif; font-size: 12px; font-weight: 200;" x="69.64599990844727" y="0" dx="0em" dy="0.95em" fill="rgb(33, 33, 33)" stroke="none" stroke-width="1px">1k</text><text style="text-anchor: middle; visibility: inherit; font-family: Roboto, sans-serif; font-size: 12px; font-weight: 200;" x="104.4689998626709" y="0" dx="0em" dy="0.95em" fill="rgb(33, 33, 33)" stroke="none" stroke-width="1px">2k</text><text style="text-anchor: middle; visibility: inherit; font-family: Roboto, sans-serif; font-size: 12px; font-weight: 200;" x="139.29199981689453" y="0" dx="0em" dy="0.95em" fill="rgb(33, 33, 33)" stroke="none" stroke-width="1px">3k</text><text style="text-anchor: middle; visibility: inherit; font-family: Roboto, sans-serif; font-size: 12px; font-weight: 200;" x="174.11499977111816" y="0" dx="0em" dy="0.95em" fill="rgb(33, 33, 33)" stroke="none" stroke-width="1px">4k</text><text style="text-anchor: middle; visibility: inherit; font-family: Roboto, sans-serif; font-size: 12px; font-weight: 200;" x="208.9379997253418" y="0" dx="0em" dy="0.95em" fill="rgb(33, 33, 33)" stroke="none" stroke-width="1px">5k</text><text style="text-anchor: middle; visibility: inherit; font-family: Roboto, sans-serif; font-size: 12px; font-weight: 200;" x="243.76099967956543" y="0" dx="0em" dy="0.95em" fill="rgb(33, 33, 33)" stroke="none" stroke-width="1px">6k</text><text style="text-anchor: middle; visibility: hidden; font-family: Roboto, sans-serif; font-size: 12px; font-weight: 200;" x="278.58399963378906" y="0" dx="0em" dy="0.95em" fill="rgb(33, 33, 33)" stroke="none" stroke-width="1px">7k</text></g><line x1="0" y1="0" x2="278.58399963378906" y2="0" fill="rgb(0, 0, 0)" stroke="rgb(204, 204, 204)" stroke-width="1px"></line></g></g></g></g></svg>