<svg viewBox="0 0 330 200" xmlns="http://www.w3.org/2000/svg"><g><g><g><g><g><line x1="41.149001121520996" y1="176.89999961853027" x2="36.149001121520996" y2="176.89999961853027" style="visibility: inherit;" fill="rgb(0, 0, 0)" stroke="rgb(204, 204, 204)" stroke-width="1px"></line><line x1="41.149001121520996" y1="162.15833298365274" x2="36.149001121520996" y2="162.15833298365274" style="visibility: inherit;" fill="rgb(0, 0, 0)" stroke="rgb(204, 204, 204)" stroke-width="1px"></line><line x1="41.149001121520996" y1="147.4166663487752" x2="36.149001121520996" y2="147.4166663487752" style="visibility: inherit;" fill="rgb(0, 0, 0)" stroke="rgb(204, 204, 204)" stroke-width="1px"></line><line x1="41.149001121520996" y1="132.6749997138977" x2="36.149001121520996" y2="132.6749997138977" style="visibility: inherit;" fill="rgb(0, 0, 0)" stroke="rgb(204, 204, 204)" stroke-width="1px"></line><line x1="41.149001121520996" y1="117.93333307902017" x2="36.149001121520996" y2="117.93333307902017" style="visibility: inherit;" fill="rgb(0, 0, 0)" stroke="rgb(204, 204, 204)" stroke-width="1px"></line><line x1="41.149001121520996" y1="103.19166644414264" x2="36.149001121520996" y2="103.19166644414264" style="visibility: inherit;" fill="rgb(0, 0, 0)" stroke="rgb(204, 204, 204)" stroke-width="1px"></line><line x1="41.149001121520996" y1="88.44999980926514" x2="36.149001121520996" y2="88.44999980926514" style="visibility: inherit;" fill="rgb(0, 0, 0)" stroke="rgb(204, 204, 204)" stroke-width="1px"></line><line x1="41.149001121520996" y1="73.7083331743876" x2="36.149001121520996" y2="73.7083331743876" style="visibility: inherit;" fill="rgb(0, 0, 0)" stroke="rgb(204, 204, 204)" stroke-width="1px"></line><line x1="41.149001121520996" y1="58.96666653951008" x2="36.149001121520996" y2="58.96666653951008" style="visibility: inherit;" fill="rgb(0, 0, 0)" stroke="rgb(204, 204, 204)" stroke-width="1px"></line><line x1="41.149001121520996" y1="44.22499990463257" x2="36.149001121520996" y2="44.22499990463257" style="visibility: inherit;" fill="rgb(0, 0, 0)" stroke="rgb(204, 204, 204)" stroke-width="1px"></line><line x1="41.149001121520996" y1="29.48333326975504" x2="36.149001121520996" y2="29.48333326975504" style="visibility: inherit;" fill="rgb(0, 0, 0)" stroke="rgb(204, 204, 204)" stroke-width="1px"></line><line x1="41.149001121520996" y1="14.74166663487751" x2="36.149001121520996" y2="14.74166663487751" style="visibility: inherit;" fill="rgb(0, 0, 0)" stroke="rgb(204, 204, 204)" stroke-width="1px"></line><line x1="41.149001121520996" y1="0" x2="36.149001121520996" y2="0" style="visibility: inherit;" fill="rgb(0, 0, 0)" stroke="rgb(204, 204, 204)" stroke-width="1px"></line></g><g transform="translate(31.149001121520996, 0)"><text style="text-anchor: end; visibility: hidden; font-family: Roboto, sans-serif; font-size: 12px; font-weight: 200;" x="0" y="176.89999961853027" dx="0em" dy="0.3em" fill="rgb(33, 33, 33)" stroke="none" stroke-width="1px">0</text><text style="text-anchor: end; visibility: inherit; font-family: Roboto, sans-serif; font-size: 12px; font-weight: 200;" x="0" y="162.15833298365274" dx="0em" dy="0.3em" fill="rgb(33, 33, 33)" stroke="none" stroke-width="1px">0.1</text><text style="text-anchor: end; visibility: hidden; font-family: Roboto, sans-serif; font-size: 12px; font-weight: 200;" x="0" y="147.4166663487752" dx="0em" dy="0.3em" fill="rgb(33, 33, 33)" stroke="none" stroke-width="1px">0.2</text><text style="text-anchor: end; visibility: inherit; font-family: Roboto, sans-serif; font-size: 12px; font-weight: 200;" x="0" y="132.6749997138977" dx="0em" dy="0.3em" fill="rgb(33, 33, 33)" stroke="none" stroke-width="1px">0.3</text><text style="text-anchor: end; visibility: hidden; font-family: Roboto, sans-serif; font-size: 12px; font-weight: 200;" x="0" y="117.93333307902017" dx="0em" dy="0.3em" fill="rgb(33, 33, 33)" stroke="none" stroke-width="1px">0.4</text><text style="text-anchor: end; visibility: inherit; font-family: Roboto, sans-serif; font-size: 12px; font-weight: 200;" x="0" y="103.19166644414264" dx="0em" dy="0.3em" fill="rgb(33, 33, 33)" stroke="none" stroke-width="1px">0.5</text><text style="text-anchor: end; visibility: hidden; font-family: Roboto, sans-serif; font-size: 12px; font-weight: 200;" x="0" y="88.44999980926514" dx="0em" dy="0.3em" fill="rgb(33, 33, 33)" stroke="none" stroke-width="1px">0.6</text><text style="text-anchor: end; visibility: inherit; font-family: Roboto, sans-serif; font-size: 12px; font-weight: 200;" x="0" y="73.7083331743876" dx="0em" dy="0.3em" fill="rgb(33, 33, 33)" stroke="none" stroke-width="1px">0.7</text><text style="text-anchor: end; visibility: hidden; font-family: Roboto, sans-serif; font-size: 12px; font-weight: 200;" x="0" y="58.96666653951008" dx="0em" dy="0.3em" fill="rgb(33, 33, 33)" stroke="none" stroke-width="1px">0.8</text><text style="text-anchor: end; visibility: inherit; font-family: Roboto, sans-serif; font-size: 12px; font-weight: 200;" x="0" y="44.22499990463257" dx="0em" dy="0.3em" fill="rgb(33, 33, 33)" stroke="none" stroke-width="1px">0.9</text><text style="text-anchor: end; visibility: hidden; font-family: Roboto, sans-serif; font-size: 12px; font-weight: 200;" x="0" y="29.48333326975504" dx="0em" dy="0.3em" fill="rgb(33, 33, 33)" stroke="none" stroke-width="1px">1</text><text style="text-anchor: end; visibility: inherit; font-family: Roboto, sans-serif; font-size: 12px; font-weight: 200;" x="0" y="14.74166663487751" dx="0em" dy="0.3em" fill="rgb(33, 33, 33)" stroke="none" stroke-width="1px">1.1</text><text style="text-anchor: end; visibility: hidden; font-family: Roboto, sans-serif; font-size: 12px; font-weight: 200;" x="0" y="0" dx="0em" dy="0.3em" fill="rgb(33, 33, 33)" stroke="none" stroke-width="1px">1.2</text></g><line x1="41.149001121520996" y1="0" x2="41.149001121520996" y2="176.89999961853027" fill="rgb(0, 0, 0)" stroke="rgb(204, 204, 204)" stroke-width="1px"></line></g></g><g transform="translate(41, 0)" clip-path="url(#clip_0)"><clipPath id="clip_0"><rect width="288" height="176"></rect></clipPath><g><g><g><line x1="0" y1="0" x2="0" y2="176.89999961853027" fill="rgb(0, 0, 0)" stroke="rgb(66, 66, 66)" stroke-width="1px" opacity="0.25"></line><line x1="36.106374859809875" y1="0" x2="36.106374859809875" y2="176.89999961853027" fill="rgb(0, 0, 0)" stroke="rgb(66, 66, 66)" stroke-width="1px" opacity="0.25"></line><line x1="72.21274971961975" y1="0" x2="72.21274971961975" y2="176.89999961853027" fill="rgb(0, 0, 0)" stroke="rgb(66, 66, 66)" stroke-width="1px" opacity="0.25"></line><line x1="108.31912457942963" y1="0" x2="108.31912457942963" y2="176.89999961853027" fill="rgb(0, 0, 0)" stroke="rgb(66, 66, 66)" stroke-width="1px" opacity="0.25"></line><line x1="144.4254994392395" y1="0" x2="144.4254994392395" y2="176.89999961853027" fill="rgb(0, 0, 0)" stroke="rgb(66, 66, 66)" stroke-width="1px" opacity="0.25"></line><line x1="180.53187429904938" y1="0" x2="180.53187429904938" y2="176.89999961853027" fill="rgb(0, 0, 0)" stroke="rgb(66, 66, 66)" stroke-width="1px" opacity="0.25"></line><line x1="216.63824915885925" y1="0" x2="216.63824915885925" y2="176.89999961853027" fill="rgb(0, 0, 0)" stroke="rgb(66, 66, 66)" stroke-width="1px" opacity="0.25"></line><line x1="252.74462401866913" y1="0" x2="252.74462401866913" y2="176.89999961853027" fill="rgb(0, 0, 0)" stroke="rgb(66, 66, 66)" stroke-width="1px" opacity="0.25"></line><line x1="288.850998878479" y1="0" x2="288.850998878479" y2="176.89999961853027" fill="rgb(0, 0, 0)" stroke="rgb(66, 66, 66)" stroke-width="1px" opacity="0.25"></line></g><g><line x1="0" y1="176.89999961853027" x2="288.850998878479" y2="176.89999961853027" fill="rgb(0, 0, 0)" stroke="rgb(66, 66, 66)" stroke-width="1px" opacity="0.25"></line><line x1="0" y1="162.15833298365274" x2="288.850998878479" y2="162.15833298365274" fill="rgb(0, 0, 0)" stroke="rgb(66, 66, 66)" stroke-width="1px" opacity="0.25"></line><line x1="0" y1="147.4166663487752" x2="288.850998878479" y2="147.4166663487752" fill="rgb(0, 0, 0)" stroke="rgb(66, 66, 66)" stroke-width="1px" opacity="0.25"></line><line x1="0" y1="132.6749997138977" x2="288.850998878479" y2="132.6749997138977" fill="rgb(0, 0, 0)" stroke="rgb(66, 66, 66)" stroke-width="1px" opacity="0.25"></line><line x1="0" y1="117.93333307902017" x2="288.850998878479" y2="117.93333307902017" fill="rgb(0, 0, 0)" stroke="rgb(66, 66, 66)" stroke-width="1px" opacity="0.25"></line><line x1="0" y1="103.19166644414264" x2="288.850998878479" y2="103.19166644414264" fill="rgb(0, 0, 0)" stroke="rgb(66, 66, 66)" stroke-width="1px" opacity="0.25"></line><line x1="0" y1="88.44999980926514" x2="288.850998878479" y2="88.44999980926514" fill="rgb(0, 0, 0)" stroke="rgb(66, 66, 66)" stroke-width="1px" opacity="0.25"></line><line x1="0" y1="73.7083331743876" x2="288.850998878479" y2="73.7083331743876" fill="rgb(0, 0, 0)" stroke="rgb(66, 66, 66)" stroke-width="1px" opacity="0.25"></line><line x1="0" y1="58.96666653951008" x2="288.850998878479" y2="58.96666653951008" fill="rgb(0, 0, 0)" stroke="rgb(66, 66, 66)" stroke-width="1px" opacity="0.25"></line><line x1="0" y1="44.22499990463257" x2="288.850998878479" y2="44.22499990463257" fill="rgb(0, 0, 0)" stroke="rgb(66, 66, 66)" stroke-width="1px" opacity="0.25"></line><line x1="0" y1="29.48333326975504" x2="288.850998878479" y2="29.48333326975504" fill="rgb(0, 0, 0)" stroke="rgb(66, 66, 66)" stroke-width="1px" opacity="0.25"></line><line x1="0" y1="14.74166663487751" x2="288.850998878479" y2="14.74166663487751" fill="rgb(0, 0, 0)" stroke="rgb(66, 66, 66)" stroke-width="1px" opacity="0.25"></line><line x1="0" y1="0" x2="288.850998878479" y2="0" fill="rgb(0, 0, 0)" stroke="rgb(66, 66, 66)" stroke-width="1px" opacity="0.25"></line></g></g></g><g><g><line x1="0" y1="176.89999961853027" x2="288.850998878479" y2="176.89999961853027" fill="rgb(0, 0, 0)" stroke="rgb(153, 153, 153)" stroke-width="1.5px"></line></g></g><g><g><line x1="36.106374859809875" y1="0" x2="36.106374859809875" y2="176.89999961853027" fill="rgb(0, 0, 0)" stroke="rgb(153, 153, 153)" stroke-width="1.5px"></line></g></g><g><g><g><g><g><path style="fill: none;" stroke="rgb(255, 112, 67)" stroke-width="2px" d="M46.57722356915474,-1.002763972126209L46.75775544345379,0.9345874976329148L47.22713831663132,3.722288157855424L47.5159893155098,6.326813809635324L47.58820206522942,8.156504841344372L47.62430844008922,9.402112057648244L47.73262756466866,10.56030817571586L48.56307418644428,14.012982991740884L48.599180561304095,16.213401167694297L49.03245705962181,18.812196869994963L49.249095308780674,20.93400700913723L49.28520168364048,22.269809171244727L49.32130805850029,23.181672735110283L49.754584556818,24.939797440680582L50.04343555569648,26.730788353845586L50.18786105513573,28.132231239087396L50.260073804855345,29.18697623118541L50.440605679154395,30.222606381016934L50.621137553453444,31.259185015410946L50.69335030317306,31.994825298003015L51.090520426630974,33.33833829318475L51.307158675789836,34.609495443526285L51.34326505064964,35.439935329755535L51.84875429868698,37.06904635748451L51.88486067354679,38.14585560818819L51.957073423266415,38.90552530526244L52.209818047285076,39.96418736234855L52.42645629644394,41.129673573874406L52.75141367018223,42.488215181271634L52.89583916962147,43.636557096282196L53.0041582942009,44.50256892269333L53.07637104392052,45.164506791904564L53.220796543359754,45.762164845478424L53.256902918219566,46.12472424479863L53.437434792518616,46.75255041084975L53.47354116737843,47.191449044770394L53.69017941653729,47.87928511729539L54.52062603831291,49.790888387026065L54.59283878803253,51.054052937490006L54.628945162892336,51.88645249261547L54.66505153775215,52.45403849605732L54.77337066233158,52.956824545172346L54.8455834120512,53.349178619415646L55.35107266008853,54.31479896458005L55.38717903494835,54.95554815447365L55.45939178466797,55.46070608604198L55.53160453438759,55.86153375230588L55.60381728410721,56.245956793423304L55.74824278354645,56.65452408479944L55.82045553326607,57.00049029169517L56.037093782424925,57.5602733067277L56.18151928186417,58.171659446348926L56.398157531023024,58.82126880450476L56.47037028074265,59.31964879833159L56.614795780181886,59.81378059649058L57.19249777793885,61.03739198584344L57.4091360270977,62.08984537874793L57.553561526536946,62.930371009900625L57.625774276256564,63.540253533712175L58.23958264887333,64.52518624520849L58.27568902373314,65.15880714549374L58.564540022611624,65.83824827244983L58.60064639747143,66.30919137720053L58.78117827177047,66.80339061587503L58.817284646630284,67.14835660761928L59.106135645508765,67.66654418191224L59.32277389466763,68.19535678961235L59.35888026952743,68.55830717049948L59.53941214382649,68.96820426082552L59.86436951756477,69.49927502983672L60.18932689130306,70.14088209921627L60.47817789018154,70.80950620171748L60.51428426504135,71.25533124956807L61.09198626279831,72.14754084220837L61.164199012517926,72.78364673892884L62.1390711337328,74.04427379916886L62.21128388345242,74.87115466079915L62.283496633172035,75.45495002092312L62.391815757751466,75.95074231697673L62.5001348823309,76.34353952650392L62.5362412571907,76.61585846641236L62.96951775550842,77.20048157810947L63.69164525270462,78.1789082875675L64.08881537616253,79.04129436542175L64.12492175102234,79.59141963258664L64.3415600001812,80.10382270673033L64.55819824934005,80.63799702330633L65.13590024709701,81.2604097301336L65.17200662195683,81.67593870422738L65.24421937167644,81.98401462950514L65.67749586999416,82.55607327489234L66.1468787431717,83.34178297939015L66.43572974205017,83.9825218291851L66.5440488666296,84.44988012509633L67.04953811466694,85.03171819268938L67.230069988966,85.53349553107668L67.37449548840523,85.92849546455507L67.55502736270428,86.29453013628107L68.09662298560143,86.886718327922L68.49379310905934,87.48722988161173L68.63821860849858,87.96073434488422L69.68530347943306,88.75642083477605L69.75751622915267,89.29314307542508L70.11857997775077,89.85301881818349L70.37132460176944,90.32255158354126L70.8768138498068,90.96143375730807L71.45451584756374,91.60197841585345L71.56283497214318,92.0292019684114L71.99611147046089,92.53521947953469L72.17664334475994,92.92627891874729L72.28496246933936,93.21842540913585L72.35717521905899,93.41978876779986L72.7543453425169,93.72386608895441L73.00708996653556,94.03465128521803L73.1515154659748,94.27052133175037L73.22372821569442,94.45242360105618L73.54868558943271,94.75772668535359L74.2347067117691,95.30247846824889L74.74019595980644,95.85119768297349L74.77630233466625,96.20888060479489L74.84851508438587,96.4685732507647L74.9929405838251,96.71960522962522L75.31789795756339,97.04119989108939L75.75117445588111,97.42580906698791L75.89559995532035,97.71887943274616L75.96781270503998,97.92548570937366L76.07613182961941,98.11388423602016L76.14834457933902,98.24463737555992L76.22055732905865,98.35253179406439L76.58162107765675,98.60714239245748L76.72604657709599,98.829411691124L76.97879120111466,99.03374886389673L77.05100395083427,99.19560670903873L77.23153582513332,99.38218074974819L77.484280449152,99.51674218638742L77.66481232345103,99.67215209289151L77.70091869831086,99.78010348809177L78.13419519662858,100.00485937244576L78.49525894522667,100.30098081112459L78.56747169494629,100.51526968571356L78.6035780698061,100.66263955768035L78.85632269382478,100.8152713015488L79.03685456812381,100.95509645923828L79.18128006756307,101.07637025235877L79.21738644242286,101.1643320357387L79.65066294074059,101.35250188657336L79.93951393961906,101.58003532051559L80.0839394390583,101.76457655226774L80.26447131335735,101.9537596539676L80.33668406307697,102.09850805493379L81.02270518541337,102.41791691900187L81.09491793513298,102.63753914765562L81.27544980943203,102.83607045376544L81.31155618429183,102.97376787403756L81.38376893401146,103.0581542138688L81.4920880585909,103.15021715063057L81.63651355803013,103.2731003401264L81.85315180718898,103.44623615226003L81.99757730662823,103.59943221582128L82.17810918092727,103.75613081131846L82.39474743008614,103.91362521967771L82.50306655466557,104.05397447406985L82.68359842896461,104.20329712200717L82.9724494278431,104.3895252783385L83.11687492728234,104.54109587966215L83.26130042672158,104.66917091085826L83.58625780045986,104.87273446234177L83.83900242447854,105.08685195758763L83.94732154905796,111.36344881119197L83.98342792391777,120.87581683280773L84.30838529765606,124.68079720723806L84.66944904625416,127.71760500120945L85.2110446691513,129.41526096354553L85.35547016859054,131.13509438955873L85.75264029204845,133.37386071088105L85.78874666690827,134.61537030886745L85.9331721663475,134.97459538106347L86.40255503952503,135.97997026559338L87.26910803616046,138.04950512800386L88.02734190821648,140.18746952733903L88.06344828307628,141.52416961948524L88.42451203167438,142.4056716900722L88.71336303055286,142.52346084782943L88.74946940541268,142.6207950023355L88.85778852999209,142.51230145141704L89.32717140316964,142.4326694532261L89.39938415288925,142.18157350710447L89.79655427634717,142.10230099406456L89.9048734009266,142.19898288546423L90.04929890036584,142.46912360304054L90.3381498992443,142.73312956939492L90.59089452326297,143.0497485514298L90.62700089812277,143.30702268608627L90.73532002270221,143.39919214063642L90.84363914728165,143.35743484731665L91.27691564559936,143.698537949126L91.49355389475822,143.8324693660719L91.63797939419746,143.81936038184918L91.99904314279557,143.91774574309832L92.107362267375,144.04049120963919L92.61285151541233,144.22330115970226L92.72117063999177,144.27743661967193L92.9017025142908,144.380360135442L93.01002163887024,144.38541443211733L93.33497901260853,144.4662850304781L93.73214913606644,144.6514847884775L93.91268101036549,144.81712798600736L93.98489376008511,144.87029401033502L94.85144675672053,145.1694732860504L95.14029775559901,145.30350167761938L95.21251050531865,145.36530492908244L95.32082962989807,145.4365513970111L95.53746787905693,145.56033302747196L95.57357425391673,145.61554800769676L95.8263188779354,145.64227323573016L96.11516987681388,145.7254960119795L96.25959537625313,145.8138592677125L96.40402087569237,145.9240198845278L96.65676549971104,146.01577874330036L96.72897824943065,146.09112259049905L96.94561649858952,146.1406906256492L97.2705738723278,146.03234026482505L97.55942487120628,146.0652202379062L97.63163762092591,146.1272483610313L97.73995674550532,146.2146663910368L97.84827587008476,146.24677419945309L97.88438224494456,146.2970691792318L98.13712686896324,146.3748165798508L98.31765874326229,146.3470766653659L98.57040336728096,146.37023742803035L98.89536074101925,146.36097209689746L99.03978624045848,146.34932194527815L99.11199899017811,146.35614018169338L99.4369563639164,146.36452870733183L99.8341264873743,146.4899258010002L100.1951902359724,146.7064246083095L100.26740298569203,146.85013661344092L100.52014760971069,146.94729273640758L100.70067948400975,147.0546426569585L100.80899860858916,147.14231105191894L101.09784960746765,147.05599319814237L101.78387072980404,147.1513949503279L102.18104085326195,147.2613659752192L102.79484922587872,147.39449844669576L102.93927472531796,147.50651095742361L103.26423209905624,147.61728652654864L103.44476397335531,147.7158664437577L103.4808703482151,147.7815218374574L103.51697672307492,147.80797751004735L104.27521059513091,147.93210591576718L104.67238071858883,148.08865354163046L104.78069984316826,148.18368748627682L104.99733809232711,148.33209850731228L105.03344446718692,148.44033619078655L105.35840184092523,148.5908631918434L105.57504009008407,148.65655022183466L105.61114646494389,148.70032592400398L106.0083165884018,148.6720398850776L106.15274208784103,148.67021129157757L106.33327396214008,148.7098458455853L106.40548671185971,148.72014160182667L106.730444085598,148.74487484671084L106.87486958503723,148.76644541965362L106.91097595989703,148.7468777853738L106.98318870961667,148.76316156329622L107.01929508447647,148.7602736840532L107.0915078341961,148.73193038094843L107.48867795765399,148.73725760030672L107.56089070737362,148.7472847265195L107.8497417062521,148.73926685620697L107.8858480811119,148.74185279325852L107.99416720569134,148.75853684128361L109.25789032578467,148.93261550520185L110.0161241978407,148.9938153560726L110.30497519671917,149.09120052522945L110.7382516950369,149.22734223966762L110.84657081961632,149.30747377658253L111.17152819335462,149.34921308167162L111.5325919419527,149.42145979266314L111.82144294083119,149.4181969161153L111.92976206541061,149.41060075322568L112.03808118999005,149.41404424093156L112.2547194391489,149.46072665170462L112.43525131344795,149.51451545020163L112.47135768830778,149.54336015192385L112.61578318774701,149.55593796131254L112.65188956260681,149.55896827387747L112.90463418662547,149.53216987813082L113.3379106849432,149.54196157458352L114.0600381821394,149.67553748029692L114.42110193073749,149.7840034946129L115.07101667821406,149.8651627972005L115.32376130223274,149.94546244616944L115.57650592625141,149.99395416404093L115.86535692512989,150.05261562226866L115.9375696748495,150.07409291567063L116.08199517428875,150.09941161905482L116.29863342344761,150.12766429743948L116.44305892288685,150.16645880682523L116.84022904634476,150.16782846706008L116.94854817092418,150.18125129553022L117.12908004522325,150.1654534465153L117.59846291840077,150.15484037180843L118.4650159150362,150.19012332779818L119.33156891167164,150.2065623324037L119.36767528653145,150.22656472910384L119.72873903512954,150.2421704788605L119.83705815970897,150.26690277722372L120.01759003400802,150.2814196836899L120.3064410328865,150.29078443806296L120.66750478148461,150.32276256611007L121.0285685300827,150.35592032460875L121.28131315410137,150.38283381007165L122.36450439989567,150.43067032125887L122.5089298993349,150.48451102825987L122.54503627419473,150.5233044437269L122.68946177363397,150.5617525190324L123.88097214400769,150.65392802286317L124.02539764344692,150.69096573837376L124.06150401830674,150.72194345352688L124.24203589260577,150.76122368225518L124.71141876578332,150.8230623698792L125.0002697646618,150.8744448779269L125.10858888924122,150.91677443931542L125.83071638643742,150.8620988147257L126.11956738531589,150.83691591786436L126.30009925961495,150.84705832869886L126.37231200933456,150.8648845878335L126.480631133914,150.89342265294943L126.55284388363361,150.9075773386679L126.58895025849341,150.90106682905983L126.98612038195132,150.8665968032936L127.02222675681114,150.8327347107863L127.05833313167096,150.81364144510374L127.13054588139057,150.78836309955855L127.2027586311102,150.77673889694182L127.38329050540924,150.77249792335144L127.45550325512886,150.77197867770352L127.74435425400733,150.79776192552526L128.7192263752222,150.83781623259918L128.755332750082,150.86995544289957L129.15250287353993,150.8954107598253L129.18860924839973,150.91264953880437L129.54967299699783,150.93443487041273L129.58577937185765,150.95513030461382L129.69409849643708,150.9833900177456L129.94684312045575,151.0130171716982L130.1995877444744,151.04471250410376L130.66897061765195,151.08665688690715L130.95782161653042,151.12437622196927L130.99392799139022,151.14736895711766L131.2466726154089,151.1701006904449L131.35499173998832,151.19089475493448L131.39109811484812,151.19833288950883L131.42720448970795,151.2081020692728L131.53552361428737,151.21992097195667L132.22154473662377,145.84345607593514L132.51039573550224,143.8000163279085L132.54650211036204,142.8571976068749L132.6548212349415,142.42243725964497L132.90756585896014,143.55715878151622L133.0158849835396,143.14854937135652L133.0880977332592,142.63013788259838L133.19641685783864,142.55336685886343L133.34084235727786,143.03949554635054L133.66579973101616,144.01816055080695L133.882437980175,145.14094780039989L134.06296985447406,145.83790495293965L134.2073953539133,146.40789615861507L134.2796081036329,146.9855594463483L134.64067185223104,147.9142634298389L134.67677822709084,148.52882530579268L134.8212037265301,149.2149799842444L135.0017356008291,149.92992791207135L135.03784197568893,150.24079087701637L135.07394835054876,150.43002287318336L135.18226747512819,150.76690023379766L135.50722484886646,151.31390621158192L135.54333122372628,151.6603369661374L135.57943759858608,151.95345206526042L135.75996947288513,152.22080052483395L135.94050134718418,152.57126543293174L136.0488204717636,152.57490361515192L136.22935234606265,152.78041645176822L136.30156509578228,152.93333890819196L136.4098842203617,152.71137930948896L136.66262884438038,152.34164313405893L137.0959053426981,152.31286144004966L137.63750096559525,152.39615641151676L138.07077746391295,152.67150919722272L138.43184121251107,152.9776650979054L138.5762667119503,153.1292071583653L138.79290496110914,153.29004479533214L139.04564958512782,153.49522062745643L139.08175595998765,153.62843436715465L139.40671333372595,153.5054658688884L139.44281970858574,153.46932355528918L140.12884083092212,153.60223695621008L140.16494720578194,153.70692433855194L140.4899045795202,153.75532303569787L140.56211732923984,153.73239584620242L141.4647767007351,153.89467879225464L141.5730958253145,154.01894733979643L141.68141494989396,154.1015790688336L141.8980531990528,154.1862671954951L142.04247869849206,154.3146193434345L142.07858507335186,154.39339412650708L142.69239344596863,154.53911505056752L142.80071257054806,154.62216303270597L143.05345719456673,154.62069847680726L143.16177631914616,154.6466245052955L143.23398906886578,154.69215337493813L143.45062731802463,154.72516888336727L143.92001019120218,154.77111428121003L144.28107393980025,154.89175658801L144.3893930643797,154.95308300877525L144.49771218895913,155.01510728604703L144.7865631878376,155.08797132480825L145.1115205615759,155.0149160227674L145.65311618447302,155.12864275459998L146.12249905765054,155.23089217920023L146.80852017998694,155.27066253314632L146.9168393045664,155.30976179325273L147.42232855260372,155.3677522725093L147.45843492746351,155.41415205723953L147.6750731766224,155.4730274948374L147.89171142578127,155.56156072843703L148.1444560497999,155.68335062735807L148.18056242465974,155.74441312316137L148.21666879951957,155.76959537634545L148.28888154923916,155.78370567841569L148.4333070486784,155.81784928576184L148.57773254811764,155.88454567897L148.72215804755686,155.93727438119953L148.7582644224167,155.9746440573811L148.7943707972765,155.99248358963658L148.97490267157556,155.87345668928273L149.04711542129516,155.82973013360368L149.40817916989326,155.8321160555127L149.6609237939119,155.90805019084883L150.6719022899866,156.06867010866006L150.85243416428565,156.1789496766474L151.17739153802395,156.3108631564401L151.28571066260338,156.40855297670618L151.357923412323,156.46947250367737L151.61066803634165,156.50463855442646L151.7911999106407,156.55946336602517L152.08005090951917,156.6382407372023L152.22447640895845,156.6890991702399L152.26058278381822,156.7168525645851L152.36890190839767,156.75581935030553L152.4411146581173,156.78305854829728L152.69385928213597,156.84676247728316L153.12713578045367,156.98229246484482L153.19934853017332,157.08281470831193L153.99368877708912,157.11600784918733L154.10200790166854,157.15210798965518L155.18519914746284,157.1890780514343L155.4740501463413,157.1798554795847L156.70166689157486,157.2798671147998L156.8821987658739,157.36208164708216L157.2793688893318,157.45109821445712L157.6043262630701,157.46642827627636L157.85707088708878,157.47774479108534L157.92928363680838,157.4999439673829L158.03760276138783,157.53723100393648L158.10981551110743,157.56851910865538L158.2903473854065,157.60481444458554L158.3264537602663,157.6283340523293L158.61530475914478,157.66634656869357L158.6514111340046,157.69816837254083L159.01247488260267,157.70641688745448L159.15690038204195,157.7364353816189L159.51796413064002,157.77191095887733L159.66238963007925,157.7800830072419L159.80681512951853,157.78151021060728L160.095666128397,157.8150170981605L160.27619800269605,157.85938926722415L160.81779362559317,157.81408010149588L160.853900000453,157.79617689098762L161.07053824961187,157.82281190584587L161.32328287363052,157.88272562624746L161.46770837306977,157.93415341964484L161.82877212166787,158.0052427202068L161.86487849652767,158.0507344104682L161.9009848713875,158.07836595592565L161.9370912462473,158.07328122989298L162.15372949540614,158.09123504372815L162.2259422451258,158.1095050385257L162.33426136970522,158.13155850957563L162.47868686914444,158.1622427715601L162.58700599372386,158.1758259058642L162.9841761171818,158.19725339606435L163.41745261549949,158.23466525239579L163.74240998923779,158.2564612703885L163.77851636409758,158.27685645996095L163.95904823839666,158.31272984520965L164.06736736297606,158.34796203516012L164.28400561213493,158.3839974722095L164.42843111157418,158.40058130899158L164.5728566110134,158.39902364645474L164.86170760989188,158.3807554902715L164.97002673447133,158.3751079249553L165.18666498363018,158.34268016134266L165.22277135848998,158.32539909455974L165.51162235736845,158.3392730095394L165.61994148194788,158.36718471036346L165.6560478568077,158.3884806147829L166.08932435512543,158.37705162792906L166.55870722830298,158.42237679686335L166.59481360316275,158.45138899151289L166.63091997802258,158.47067446928187L166.66702635288237,158.47431310690428L167.17251560091972,158.4441176728668L168.03906859755514,158.45100213993172L168.1473877221346,158.44443411229528L168.2196004718542,158.4510276919616L168.29181322157382,158.4480704500141L168.40013234615324,158.4449473436277L168.5445578455925,158.47003772075558L168.65287697017195,158.49028709406858L168.68898334503172,158.50897447560786L169.33889809250832,158.5188201305416L169.69996184110641,158.54444052540595L170.1332383394241,158.56926595291893L170.31377021372316,158.5825180931548L170.349876588583,158.59723119615762L170.45819571316244,158.614760984162L170.85536583662034,158.65645369320515L170.89147221148014,158.68197587292556L171.32474870979786,158.71284342901754L171.3608550846577,158.72322702243946L171.43306783437728,158.7216106392903L171.46917420923708,158.71709888336224L171.57749333381653,158.72763341387915L171.61359970867633,158.73451384612795L171.64970608353613,158.74100265727643L171.90245070755483,158.7424259975268L171.97466345727443,158.7522560734823L172.5884718298912,158.7841026154109L172.66068457961083,158.7929665453508L172.69679095447066,158.79986080119372L172.84121645390988,158.82055768217378L172.9495355784893,158.8425854049372L173.56334395110608,158.805997163448L173.77998220026493,158.76502756405444L174.14104594886305,158.76599186908769L174.71874794662,158.73805667342302L175.04370532035827,158.69812937393365L175.1159180700779,158.67506177076896L175.18813081979752,158.66140968397193L175.36866269409657,158.6684704170531L175.476981818676,158.68093254298716L175.80193919241427,158.7005205520107L175.91025831699372,158.71991428742515L176.01857744157314,158.73727859015872L176.99344956278802,158.76169045960023L177.2100878119469,158.78421794933183L177.3184069365263,158.80901087775678L177.46283243596554,158.8359617820668L177.67947068512441,158.86026179617573L177.78778980970384,158.88289307437353L178.04053443372248,158.90949419675107L178.1127471834421,158.92714148070377L178.22106630802153,158.94666418597004L178.83487468063834,158.97938816995128L178.97930018007756,158.99141941322716L179.26815117895603,159.01176463726028L179.30425755381586,159.02164768476075L179.62921492755413,147.1977738777623L179.84585317671298,148.42682377399174L179.8819595515728,150.4833237306931L179.9180659264326,152.5538677568656L180.02638505101203,151.88508915137893L180.2430233001709,153.0059513034194L180.53187429904938,153.64657280818867L180.82072529792785,153.931972997813L180.96515079736707,153.57472541150995L181.03736354708673,153.3916523038901L181.362320920825,154.33249694272192L181.54285279512405,154.86978159488703L181.7594910442829,155.80549254362404L181.97612929344177,156.22648890661193L182.22887391746042,156.78259314529632L182.87878866493702,157.74125406342935L183.5648097872734,158.7037691451461L183.70923528671264,159.27137380561084L183.85366078615186,159.51619300752915L184.46746915876867,159.37118096894935L184.6841074079275,159.28500848401447L184.9007456570864,159.2328160121951L185.00906478166578,159.25817705708735L185.65897952914239,159.4817742168315L185.8034050285816,159.54616860752174L186.05614965260028,159.67498904046187L186.1644687771797,159.8028730259729L186.56163890063763,159.85654003978996L186.9227026492357,160.0121870463869L186.95880902409553,160.09698579413322L187.06712814867495,160.1031995190105L187.46429827213288,160.03586517185556L188.00589389503003,160.10611262838438L188.04200026988983,160.1713600659993L188.51138314306738,160.16114167131488L188.72802139222622,160.07998348524703L188.80023414194585,160.0335278686967L188.83634051680568,160.01482387836847L189.0529787659645,160.10866778636367L189.41404251456262,160.2578866449715L189.52236163914202,160.34985100235917L189.63068076372147,160.3531581055635L189.66678713858127,160.3639339182127L189.8112126380205,160.45829777896813L190.17227638661862,160.61200449697668L190.64165925979614,160.72390330746245L190.67776563465594,160.76058343569707L191.29157400727271,160.82590432116734L191.68874413073064,160.88521975474978L192.0137015044689,160.9594674988874L192.194233378768,161.05229432825917L192.37476525306704,161.1363420896192L192.59140350222586,161.2085240242663L192.91636087596416,161.1350462796799L193.20521187484263,161.15244161700355L193.53016924858093,161.24136354220036L193.92733937203886,161.33016846856094L194.1078712463379,161.3685662846957L194.2161903709173,161.36182590829534L194.79389236867425,161.38959179840936L195.08274336755275,161.40636160578907L195.227168866992,161.41946501266358L195.33548799157143,161.44766830903166L195.44380711615088,161.4798532554094L195.47991349101065,161.50433608546953L195.76876448988912,161.5884461279868L195.84097723960878,161.65648119620153L196.23814736306667,161.74175863701169L196.52699836194515,161.80471731643223L196.92416848540304,161.7637982380568L197.0685939848423,161.73200082400675L197.3574449837208,161.74984548275356L198.1878916054964,161.8262180578679L198.40452985465527,161.9091944827899L198.5489553540945,161.9794164865412L199.09055097699166,162.08992089914017L199.30718922615048,162.19426124905874L199.41550835072994,162.22446882962706L199.48772110044956,162.2598342367539L199.74046572446824,162.32286288210435L199.84878484904766,162.36366272075043L199.99321034848688,162.39625540069676L200.13763584792613,162.42031947368662L200.17374222278593,162.44013451024412L200.28206134736536,162.46137699352334L200.7514442205429,162.55813976330222L200.82365697026253,162.63228151252653L200.89586971998216,162.6758303372549L201.04029521942138,162.7265905600783L201.18472071886063,162.75708755201123L201.25693346858023,162.74741542699658L201.54578446745873,162.74338267567117L201.9068482160568,162.75408423091267L202.41233746409415,162.75673522268607L202.5206565886736,162.77043391519777L202.62897571325303,162.76228567169125L203.24278408586977,162.77501277723317L203.78437970876695,162.77237165581258L203.964911583066,162.79546491988813L204.0010179579258,162.8095335169098L204.14544345736502,162.84381948820533L204.2898689568043,162.88437953649705L204.32597533166407,162.90748015291683L204.43429445624352,162.91842113570266L204.61482633054257,162.94581595847598L204.65093270540237,162.97009236196786L205.01199645400047,163.01850156656974L205.30084745287894,163.01663058260047L205.4452729523182,163.0253851419583L205.51748570203782,163.0457879368033L205.7341239511967,163.04554456605902L206.02297495007517,163.08598659088037L206.05908132493497,163.11566354540886L206.2757195740938,163.15044477869142L206.38403869867327,163.1871959508391L206.88952794671061,163.19287216573977L206.99784707129,163.2132472438789L207.03395344614984,163.2300567608954L207.14227257072926,163.24509818007516L207.79218731820583,163.26933459783947L207.93661281764508,163.29605483969L208.18935744166373,163.32968853836138L208.4059956908226,163.3390795464931L208.55042119026183,163.32753128492527L208.58652756512166,163.32657817491793L208.69484668970108,163.31225948855294L209.05591043829918,163.3463594249627L209.34476143717765,163.39728425623215L209.56139968633653,163.45165247886743L209.66971881091595,163.49191522112073L209.77803793549538,163.50827157886826L209.850250685215,163.5260615368101L209.92246343493463,163.54759765240593L210.50016543269157,163.57471382540774L210.5723781824112,163.5996257057289L210.6445909321308,163.62385380484255L210.68069730699062,163.64409544099286L210.71680368185045,163.65615079815908L210.9695483058691,163.67814613808798L211.00565468072892,163.6973582898739L211.6555694282055,163.69821103654465L211.76388855278492,163.7109819135449L212.37769692540166,163.73097264447944L212.8470797985792,163.7338587711285L213.31646267175677,163.75091096867803L213.38867542147636,163.764582726653L214.07469654381276,163.78135810354974L214.21912204325199,163.79966175651427L214.47186666727066,163.8274718313314L214.6162921667099,163.8275334057057L214.79682404100893,163.80912922586128L215.84390891194343,163.8532743365681L215.91612166166308,163.87506973489914L216.27718541026115,163.89548520146195L216.31329178512095,163.91274159267L217.46869578063487,163.95427641433795L218.3352487772703,163.9747257465324L218.76852527558805,164.00543998500532L218.84073802530764,164.03235517969998L219.0212698996067,164.04197532568332L219.3823336482048,164.04052736706666L219.49065277278422,164.04681493439762L219.52675914764404,164.05510911989526L219.81561014652252,164.056964588949L219.88782289624214,164.06321326773488L220.0683547705412,164.06786355294057L220.28499301970004,164.08008319051967L221.04322689175606,164.0664771026694L221.40429064035413,164.06893483471598L221.5487161397934,164.06799971652373L221.69314163923264,164.06418712060074L221.9458862632513,164.08035035290578L222.09031176269053,164.09933980727143L222.12641813755036,164.1138896690078L222.19863088726996,164.1300979617664L222.23473726212978,164.13420295256847L222.6680137604475,164.08839083951185L222.9929711341858,164.0352265849097L223.3901412576437,164.0255206458811L223.78731138110163,164.0368245925872L223.85952413082123,164.04479931824778L224.04005600512028,164.06243077474235L224.1122687548399,164.07912827974044L224.29280062913892,164.09250199101973L224.5094388782978,164.09815424325464L224.76218350231647,164.10526369433066L224.90660900175573,164.11575783005307L225.23156637549403,164.1427668025667L225.77316199839115,164.1862804270456L225.80926837325094,164.21509491088668L225.9536938726902,164.22725215786082L226.09811937212942,164.2449442688281L226.20643849670887,164.2598399850976L226.96467236876487,164.2881490527679L227.21741699278354,164.31685948991154L227.28962974250317,164.33659172418038L227.36184249222276,164.35591471248927L228.1200763642788,163.1931350837055L228.15618273913861,162.58927474747745L228.26450186371804,161.73995953152908L228.33671461343764,161.38002885882713L228.48114011287691,161.79683497086066L228.51724648773668,162.20745636987877L228.69777836203573,161.57712607029555L228.7699911117554,160.81313121927175L228.84220386147499,160.2628577489027L229.02273573577403,160.2383001131825L229.70875685811043,160.65832003855323L229.9253951072693,161.05512480553267L229.9976078569889,161.44802656208742L230.10592698156833,161.65744744149225L230.4308843553066,162.22348632286037L230.82805447876453,162.76875531850266L231.15301185250283,163.18832399341193L231.18911822736263,163.4623377712242L231.33354372680188,163.6884990922383L231.69460747539998,163.79900963628072L231.94735209941865,163.9928077266588L232.09177759885787,163.9599966246752L232.34452222287655,163.82452694064557L232.70558597147465,163.7889936169957L232.77779872119427,163.82545508058217L232.8139050960541,163.87370177821896L232.95833059549332,163.92780704919755L233.03054334521292,163.9965554032325L233.10275609493257,164.03732202483351L233.13886246979237,164.04285628582568L233.21107521951197,164.08276385763313L233.6082453429699,164.22430104813571L234.54701108932497,164.2689683317828L234.8358620882034,164.26268011854316L234.94418121278284,164.30063926855502L235.0163939625025,164.19485496903275L235.0525003373623,164.1209607057184L235.30524496138096,164.14288083438367L235.4496704608202,164.21534896966344L235.5218832105398,164.2806059741293L235.63020233511924,164.34401942662245L236.31622345745564,164.36115466986703L236.56896808147428,164.32947308650984L236.64118083119394,164.3178884738964L236.74949995577336,164.33306222299623L237.11056370437146,164.45864628203555L237.54384020268915,164.52643926128007L238.44649957418443,164.74338847461186L239.854648193717,164.98249968679093L240.2157119423151,165.19430379558216L240.72120119035245,165.30385368303234L240.90173306465147,165.3231172538714L240.97394581437112,165.34745435974418L241.44332868754864,165.4592684782115L242.02103068530562,165.5290817105535L242.12934980988504,165.57705181618024L242.3820944339037,165.5868462212257L242.49041355848314,165.5976675898253L242.7431581825018,165.62267182919834L242.9959028065205,165.66700092292476L243.1042219310999,165.68844057567597L243.35696655511856,165.72106262082866L243.465285679698,165.7635375497981L243.71803030371666,165.8457948103902L243.79024305343628,165.89990629588783L243.8985621780157,165.91663837187116L243.93466855287554,165.93100244007636L243.9707749277353,165.93391390763787L244.00688130259513,165.94520404262903L244.2596259266138,165.97661432364097L244.51237055063248,166.00832556545421L244.83732792437075,165.93224882859028L244.98175342381,165.8957233997888L245.12617892324923,165.8779673354882L245.84830642044545,165.92275569100832L246.28158291876315,166.00079727810615L246.67875304222108,166.06986229237486L247.29256141483785,166.16636195147396L247.65362516343595,166.26000479787862L247.9063697874546,166.33425380131507L248.01468891203402,166.38822520112234L248.37575266063212,166.45009319136975L248.41185903549194,166.49357952339625L248.48407178521154,166.53164674061753L248.70071003437042,166.57792739864342L248.95345465838906,166.62878421309497L249.89222040474417,166.70705806829125L250.3616032779217,166.75748346964167L250.86709252595904,166.81058285932664L251.0476244002581,166.8445794229629L251.1559435248375,166.85772744009674L251.44479452371598,166.865080699913L251.66143277287483,166.8860024596484L252.05860289633273,166.945208155543L252.38356027007103,167.00027982402077L252.6363048940897,167.0523056507431L252.85294314324855,167.10036704258684L252.99736864268777,167.13093002845042L253.06958139240743,167.11476457493765L253.10568776726723,167.10944679977646L254.18887901306152,167.18155874754726L254.33330451250075,167.2277606800323L254.36941088736057,167.25842626873578L254.62215551137922,167.25551211936428L254.65826188623905,167.25875712159876L255.27207025885582,167.30266377689213L255.48870850801467,167.32255568301744L255.56092125773432,167.3387967578641L255.5970276325941,167.35342242463867L255.99419775605202,167.3915230567983L256.10251688063147,167.41566585759077L256.6080061286688,167.40289777474737L256.752431628108,167.41323256290616L256.82464437782767,167.42718859313615L257.25792087614536,167.46266176769163L257.54677187502386,167.4981621428643L257.7273037493229,167.5218558699597L257.7995164990425,167.54253166197796L257.87172924876216,167.5587619955481L258.8104949951172,167.6057159005775L259.42430336773396,167.64204956697094L259.85757986605165,167.6996125878678L259.8936862409115,167.73818482199016L260.14643086493015,167.77195591759084L260.363069114089,167.76151272978566L260.6880264878273,167.73571416258605L260.7241328626871,167.71931175786912L260.86855836212635,167.70517778361253L261.0129838615656,167.7079819613587L261.1574093610048,167.7190324274359L261.26572848558425,167.73389630121383L261.3379412353039,167.75016120042687L261.51847310960295,167.77144128463786L261.8073241084814,167.77699631833224L262.457238855958,167.80550921674433L262.8183026045561,167.82293239896893L262.8905153542757,167.84008793814644L263.1432599782944,167.85964839349302L263.43211097717284,167.88598335937473L263.46821735203264,167.89761921488878L263.5765364766121,167.91012823284302L264.08202572464944,167.9286770105057L264.5875149726868,167.96091197381546L264.731940472126,167.98519548069416L264.76804684698584,167.99866768440327L264.80415322184564,168.0089136376043L265.2735360950232,168.01517367951575L265.490174344182,168.0053691627243L265.67070621848103,168.01211582214432L265.7068125933409,168.00760577410142L265.7790253430605,168.009643694341L265.88734446763993,168.0113679484164L265.95955721735953,168.01832233246753L266.067876341939,168.0313710857859L266.4650464653969,168.04851118353918L267.4038122117519,168.0569366316595L268.0537269592285,168.06981493526325L268.5953225821257,168.08680882959763L268.7036417067051,168.0719577477771L268.73974808156487,168.06533406172053L268.8841735810041,168.05442669022366L268.9563863307238,168.05316879622927L269.3174500793219,168.06069905626475L269.8229393273592,168.076087480831L270.3284285753965,168.0533649994331L270.47285407483577,168.03051358437526L270.5811731994152,168.0064858103636L270.617279574275,167.98304606520992L271.5921516954899,168.00242336860654L271.8087899446487,168.02196592458722L271.91710906922816,168.03977010970996L272.24206644296646,168.05421904746788L272.4587046921253,168.0676710207473L272.63923656642436,168.0812921154917L272.67534294128416,168.09183367151968L272.711449316144,168.09900103172777L272.7836620658636,168.0919993121164L273.1086194396019,168.10433751970064L273.21693856418136,168.11484259505227L273.28915131390096,168.1180557908674L273.4335768133402,168.12645842120608L273.8668533116579,168.13774845426957L273.9390660613775,168.14800047677255L274.04738518595695,168.15837832131555L274.227917060256,168.17317339612995L274.37234255969526,168.17907306161356L274.9500445574522,168.19660351268968L274.986150932312,168.20621763004988L275.13057643175125,168.2201443484905L275.2750019311905,168.23362611151862" fill="none"></path></g></g></g></g><g opacity="0.2"><g><g><g><path style="fill: none;" stroke="rgb(255, 112, 67)" stroke-width="2px" d="M46.28837257027626,-1.0529370245480378L46.39669169485569,0.12095093104983334L46.57722356915474,2.006949662808046L46.75775544345379,3.84061470196952L47.22713831663132,7.903839147928352L47.5159893155098,10.233602287159101L47.58820206522942,10.901041388846352L47.62430844008922,11.270522882078954L47.73262756466866,12.297602352803324L48.56307418644428,19.19199521575331L48.599180561304095,19.51402843161478L49.03245705962181,22.710390423439094L49.249095308780674,24.1167222178473L49.28520168364048,24.273512414404795L49.32130805850029,24.549468080908078L49.754584556818,27.57698449903541L50.04343555569648,29.417274723592787L50.18786105513573,30.2343955669499L50.260073804855345,30.769093719332382L50.440605679154395,31.776051605764174L50.621137553453444,32.81405296700194L50.69335030317306,33.098285721891074L51.090520426630974,35.35360778595734L51.307158675789836,36.516231169038576L51.34326505064964,36.68559515909942L51.84875429868698,39.51271289907797L51.88486067354679,39.76106948424371L51.957073423266415,40.045029850873874L52.209818047285076,41.55218044797772L52.42645629644394,42.87790289116319L52.75141367018223,44.526027592367484L52.89583916962147,45.359069968798L53.0041582942009,45.80158666231003L53.07637104392052,46.15741359572139L53.220796543359754,46.6586519258392L53.256902918219566,46.66856334377895L53.437434792518616,47.69428965992643L53.47354116737843,47.8497969956513L53.69017941653729,48.91103922608289L54.52062603831291,52.6582932916221L54.59283878803253,52.94879976318586L54.628945162892336,53.13505182530361L54.66505153775215,53.30541750122007L54.77337066233158,53.7110036188449L54.8455834120512,53.93770973078057L55.35107266008853,55.763229482326665L55.38717903494835,55.916671939314085L55.45939178466797,56.21844298339448L55.53160453438759,56.462775251701714L55.60381728410721,56.82259135509946L55.74824278354645,57.26737502186365L55.82045553326607,57.51943960203877L56.037093782424925,58.3999478292765L56.18151928186417,59.08873865578076L56.398157531023024,59.79568284173849L56.47037028074265,60.06721878907184L56.614795780181886,60.55497829372905L57.19249777793885,62.87280906987275L57.4091360270977,63.66852546810466L57.553561526536946,64.19115945662963L57.625774276256564,64.4550773194295L58.23958264887333,66.00258531245291L58.27568902373314,66.10923849592157L58.564540022611624,66.85740996288399L58.60064639747143,67.01560603432657L58.78117827177047,67.54468947388682L58.817284646630284,67.66580559523564L59.106135645508765,68.44382554335172L59.32277389466763,68.98857570116246L59.35888026952743,69.10273274183021L59.53941214382649,69.58304989631455L59.86436951756477,70.29588118335352L60.18932689130306,71.1032927032856L60.47817789018154,71.8124423554693L60.51428426504135,71.9240688213439L61.09198626279831,73.48585523116878L61.164199012517926,73.7378055840095L62.1390711337328,75.93521438952888L62.21128388345242,76.11147595324462L62.283496633172035,76.33064306110907L62.391815757751466,76.69443076105716L62.5001348823309,76.93273534079464L62.5362412571907,77.02433687627502L62.96951775550842,78.07741624565517L63.69164525270462,79.64654835175455L64.08881537616253,80.33487348220314L64.12492175102234,80.41660753333392L64.3415600001812,80.87242731794592L64.55819824934005,81.43925849817032L65.13590024709701,82.19402879037455L65.17200662195683,82.29923216536798L65.24421937167644,82.44612851742178L65.67749586999416,83.4141612429732L66.1468787431717,84.52034753613685L66.43572974205017,84.94363010387752L66.5440488666296,85.15091756896314L67.04953811466694,85.90447529407899L67.230069988966,86.28616153865761L67.37449548840523,86.5209953647726L67.55502736270428,86.84358214387007L68.09662298560143,87.77500061538342L68.49379310905934,88.3879972121463L68.63821860849858,88.67099103979297L69.68530347943306,89.9499505696138L69.75751622915267,90.09822643639859L70.11857997775077,90.69283243232115L70.37132460176944,91.02685073157784L70.8768138498068,91.91975701795829L71.45451584756374,92.56279540367154L71.56283497214318,92.67003729724831L71.99611147046089,93.29424574621964L72.17664334475994,93.51286807756617L72.28496246933936,93.65664514471871L72.35717521905899,93.72183380579582L72.7543453425169,94.17998207068624L73.00708996653556,94.50082907961342L73.1515154659748,94.62432640154884L73.22372821569442,94.72527700501496L73.54868558943271,95.2156813117997L74.2347067117691,96.11960614259186L74.74019595980644,96.67427650506039L74.77630233466625,96.74540498752694L74.84851508438587,96.85811221971943L74.9929405838251,97.09615319791598L75.31789795756339,97.52359188328563L75.75117445588111,98.0027228308357L75.89559995532035,98.15848498138348L75.96781270503998,98.23539512431489L76.07613182961941,98.39648202598988L76.14834457933902,98.4407670848696L76.22055732905865,98.51437342182106L76.58162107765675,98.98905829004713L76.72604657709599,99.1628156391238L76.97879120111466,99.34025462305578L77.05100395083427,99.43839347675174L77.23153582513332,99.66204181081235L77.484280449152,99.71858434134629L77.66481232345103,99.9052669526476L77.70091869831086,99.94203058089221L78.13419519662858,100.34199319897675L78.49525894522667,100.74516296914285L78.56747169494629,100.836702997597L78.6035780698061,100.8836943656305L78.85632269382478,101.04421891735146L79.03685456812381,101.16483419577247L79.18128006756307,101.2582809420395L79.21738644242286,101.29627471080855L79.65066294074059,101.63475666282534L79.93951393961906,101.92133547142896L80.0839394390583,102.04138839989594L80.26447131335735,102.23753430651738L80.33668406307697,102.31563065638306L81.02270518541337,102.897030215104L81.09491793513298,102.96697249063624L81.27544980943203,103.13386741293019L81.31155618429183,103.1803140044457L81.38376893401146,103.18473372361564L81.4920880585909,103.28831155577322L81.63651355803013,103.45742512437016L81.85315180718898,103.70593987046047L81.99757730662823,103.82922631116313L82.17810918092727,103.99117870456425L82.39474743008614,104.14986683221659L82.50306655466557,104.26449835565802L82.68359842896461,104.42728109391314L82.9724494278431,104.66886751283548L83.11687492728234,104.76845178164763L83.26130042672158,104.86128345765246L83.58625780045986,105.17807978956705L83.83900242447854,105.40802820045639L83.94732154905796,120.77834409159846L83.98342792391777,135.14436886523137L84.30838529765606,130.38826776888354L84.66944904625416,132.27281669216654L85.2110446691513,131.9617449070496L85.35547016859054,133.7148445285785L85.75264029204845,136.7320101928645L85.78874666690827,136.47763470584704L85.9331721663475,135.51343298935745L86.40255503952503,137.48803259238824L87.26910803616046,141.15380742161958L88.02734190821648,143.39441612634178L88.06344828307628,143.52921975770448L88.42451203167438,143.72792479595265L88.71336303055286,142.70014458446525L88.74946940541268,142.76679623409467L88.85778852999209,142.34956112503932L89.32717140316964,142.31322145593975L89.39938415288925,141.80492958792198L89.79655427634717,141.98339222450466L89.9048734009266,142.3440057225638L90.04929890036584,142.874334679405L90.3381498992443,143.1291385189265L90.59089452326297,143.52467702448212L90.62700089812277,143.69293388807097L90.73532002270221,143.53744632246165L90.84363914728165,143.294798907337L91.27691564559936,144.21019260184005L91.49355389475822,144.0333664914908L91.63797939419746,143.79969690551502L91.99904314279557,144.06532378497207L92.107362267375,144.22460940945055L92.61285151541233,144.49751608479684L92.72117063999177,144.35863980962645L92.9017025142908,144.53474540909713L93.01002163887024,144.39299587713035L93.33497901260853,144.5875909280192L93.73214913606644,144.9292844254766L93.91268101036549,145.06559278230222L93.98489376008511,144.95004304682647L94.85144675672053,145.61824219962344L95.14029775559901,145.50454426497288L95.21251050531865,145.45800980627706L95.32082962989807,145.5434210989041L95.53746787905693,145.74600547316325L95.57357425391673,145.69837047803395L95.8263188779354,145.68236107778023L96.11516987681388,145.8503301763535L96.25959537625313,145.94640415131204L96.40402087569237,146.08926080975078L96.65676549971104,146.15341703145918L96.72897824943065,146.2041383612971L96.94561649858952,146.21504267837443L97.2705738723278,145.8698147235888L97.55942487120628,146.11454019752796L97.63163762092591,146.22029054571885L97.73995674550532,146.34579343604503L97.84827587008476,146.2949359120776L97.88438224494456,146.37251164889986L98.13712686896324,146.4914376807793L98.31765874326229,146.30546679363857L98.57040336728096,146.40497857202698L98.89536074101925,146.3470741001981L99.03978624045848,146.3318467178492L99.11199899017811,146.3663675363162L99.4369563639164,146.37711149578945L99.8341264873743,146.67802144150275L100.1951902359724,147.03117281927345L100.26740298569203,147.065704621138L100.52014760971069,147.09302692085754L100.70067948400975,147.21566753778487L100.80899860858916,147.2738136443596L101.09784960746765,146.9265164174775L101.78387072980404,147.29449757860618L102.18104085326195,147.42632251255617L102.79484922587872,147.5941971539106L102.93927472531796,147.67452972351538L103.26423209905624,147.78344988023622L103.44476397335531,147.86373631957127L103.4808703482151,147.88000492800694L103.51697672307492,147.84766101893229L104.27521059513091,148.1182985243469L104.67238071858883,148.3234749804254L104.78069984316826,148.32623840324638L104.99733809232711,148.55471503886542L105.03344446718692,148.60269271599796L105.35840184092523,148.81665369342866L105.57504009008407,148.75508076682158L105.61114646494389,148.76598947725793L106.0083165884018,148.62961082668807L106.15274208784103,148.6674684013276L106.33327396214008,148.76929767659686L106.40548671185971,148.73558523618877L106.730444085598,148.78197471403706L106.87486958503723,148.79880127906776L106.91097595989703,148.71752633395414L106.98318870961667,148.78758723017984L107.01929508447647,148.75594186518867L107.0915078341961,148.68941542629125L107.48867795765399,148.74524842934412L107.56089070737362,148.76232541583872L107.8497417062521,148.72724005073817L107.8858480811119,148.74573169883587L107.99416720569134,148.7835629133213L109.25789032578467,149.19373350107915L110.0161241978407,149.08561513237873L110.30497519671917,149.2372782789647L110.7382516950369,149.4315548113249L110.84657081961632,149.4276710819549L111.17152819335462,149.41182203930526L111.5325919419527,149.52982985915037L111.82144294083119,149.4133026012936L111.92976206541061,149.39920650889124L112.03808118999005,149.4192094724904L112.2547194391489,149.5307502678642L112.43525131344795,149.59519864794711L112.47135768830778,149.5866272045072L112.61578318774701,149.57480467539557L112.65188956260681,149.56351374272484L112.90463418662547,149.4919722845108L113.3379106849432,149.5566491192626L114.0600381821394,149.87590133886704L114.42110193073749,149.9467025160869L115.07101667821406,149.9869017510819L115.32376130223274,150.06591191962283L115.57650592625141,150.06669174084817L115.86535692512989,150.14060780961026L115.9375696748495,150.10630885577353L116.08199517428875,150.13738967413116L116.29863342344761,150.17004331501641L116.44305892288685,150.22465057090386L116.84022904634476,150.16988295741234L116.94854817092418,150.20138553823546L117.12908004522325,150.1417566729929L117.59846291840077,150.13892075974817L118.4650159150362,150.24304776178272L119.33156891167164,150.23122083931207L119.36767528653145,150.256568324154L119.72873903512954,150.2655791034955L119.83705815970897,150.30400122476857L120.01759003400802,150.30319504338917L120.3064410328865,150.30483156962256L120.66750478148461,150.37072975818074L121.0285685300827,150.40565696235672L121.28131315410137,150.423204038266L122.36450439989567,150.50242508803973L122.5089298993349,150.5652720887614L122.54503627419473,150.5814945669274L122.68946177363397,150.6194246319907L123.88097214400769,150.79219127860932L124.02539764344692,150.7465223116396L124.06150401830674,150.76841002625653L124.24203589260577,150.82014402534764L124.71141876578332,150.91582040131522L125.0002697646618,150.95151863999848L125.10858888924122,150.98026878139817L125.83071638643742,150.78008537784115L126.11956738531589,150.79914157257238L126.30009925961495,150.86227194495058L126.37231200933456,150.89162397653544L126.480631133914,150.93622975062334L126.55284388363361,150.92880936724555L126.58895025849341,150.89130106464776L126.98612038195132,150.8148917646442L127.02222675681114,150.78194157202535L127.05833313167096,150.7850015465799L127.13054588139057,150.75044558124074L127.2027586311102,150.75930259301668L127.38329050540924,150.76613646296585L127.45550325512886,150.7711998092316L127.74435425400733,150.8364367972579L128.7192263752222,150.89789769321007L128.755332750082,150.91816425835017L129.15250287353993,150.93359373521383L129.18860924839973,150.93850770727303L129.54967299699783,150.9671128678252L129.58577937185765,150.98617345591546L129.69409849643708,151.0257795874433L129.94684312045575,151.05745790262705L130.1995877444744,151.09225550271208L130.66897061765195,151.14957346111228L130.95782161653042,151.18095522456247L130.99392799139022,151.18185805984024L131.2466726154089,151.2041982904358L131.35499173998832,151.22208585166882L131.39109811484812,151.20949009137038L131.42720448970795,151.22275583891874L131.53552361428737,151.23764932598246L132.22154473662377,137.7787587319028L132.51039573550224,140.73485670586857L132.54650211036204,141.44296952532451L132.6548212349415,141.77029673880008L132.90756585896014,145.25924106432313L133.0158849835396,142.53563525611693L133.0880977332592,141.85252064946116L133.19641685783864,142.43821032326105L133.34084235727786,143.76868857758117L133.66579973101616,145.48615805749156L133.882437980175,146.8251286747893L134.06296985447406,146.88334068174927L134.2073953539133,147.26288296712818L134.2796081036329,147.85205437794812L134.64067185223104,149.30731940507482L134.67677822709084,149.45066811972336L134.8212037265301,150.2442120019219L135.0017356008291,151.0023498038118L135.03784197568893,150.70708532443388L135.07394835054876,150.71387086743383L135.18226747512819,151.27221627471914L135.50722484886646,152.1344151782583L135.54333122372628,152.17998309797065L135.57943759858608,152.3931247139449L135.75996947288513,152.62182321419425L135.94050134718418,153.09696279507844L136.0488204717636,152.5803608884822L136.22935234606265,153.0886857066926L136.30156509578228,153.1627225928276L136.4098842203617,152.37843991143444L136.66262884438038,151.78703887091393L137.0959053426981,152.2696888990357L137.63750096559525,152.52109886871747L138.07077746391295,153.08453837578162L138.43184121251107,153.43689894892947L138.5762667119503,153.35652024905508L138.79290496110914,153.53130125078246L139.04564958512782,153.80298437564284L139.08175595998765,153.828254976702L139.40671333372595,153.32101312148902L139.44281970858574,153.4151100848904L140.12884083092212,153.80160705759135L140.16494720578194,153.86395541206474L140.4899045795202,153.82792108141678L140.56211732923984,153.6980050619592L141.4647767007351,154.138103211333L141.5730958253145,154.20535016110904L141.68141494989396,154.2255266623893L141.8980531990528,154.3132993854874L142.04247869849206,154.50714756534353L142.07858507335186,154.51155630111595L142.69239344596863,154.7576964366582L142.80071257054806,154.74673500591365L143.05345719456673,154.61850164295916L143.16177631914616,154.68551354802787L143.23398906886578,154.76044667940212L143.45062731802463,154.77469214601098L143.92001019120218,154.84003237797415L144.28107393980025,155.0727200482099L144.3893930643797,155.04507263992318L144.49771218895913,155.10814370195465L144.7865631878376,155.1972673829501L145.1115205615759,154.9053330697062L145.65311618447302,155.29923285234887L146.12249905765054,155.38426631610054L146.80852017998694,155.33031806406547L146.9168393045664,155.36841068341235L147.42232855260372,155.4547379913942L147.45843492746351,155.48375173433487L147.6750731766224,155.5613406512342L147.89171142578127,155.69436057883647L148.1444560497999,155.86603547573964L148.18056242465974,155.83600686686634L148.21666879951957,155.80736875612155L148.28888154923916,155.80487113152105L148.4333070486784,155.86906469678107L148.57773254811764,155.98459026878223L148.72215804755686,156.01636743454384L148.7582644224167,156.03069857165355L148.7943707972765,156.0192428880197L148.97490267157556,155.69491633875197L149.04711542129516,155.76414030008513L149.40817916989326,155.8356949383762L149.6609237939119,156.021951393853L150.6719022899866,156.30959998537693L150.85243416428565,156.34436902862834L151.17739153802395,156.50873337612916L151.28571066260338,156.55508770710534L151.357923412323,156.56085179413412L151.61066803634165,156.55738763055012L151.7911999106407,156.64170058342324L152.08005090951917,156.75640679396793L152.22447640895845,156.76538681979633L152.26058278381822,156.75848265610293L152.36890190839767,156.81426952888614L152.4411146581173,156.82391734528494L152.69385928213597,156.94231837076197L153.12713578045367,157.18558744618736L153.19934853017332,157.23359807351252L153.99368877708912,157.1657975605005L154.10200790166854,157.20625820035693L155.18519914746284,157.24453314410297L155.4740501463413,157.1660216218103L156.70166689157486,157.42988456762248L156.8821987658739,157.4854034455057L157.2793688893318,157.58462306551957L157.6043262630701,157.4894233690052L157.85707088708878,157.49471956329882L157.92928363680838,157.53324273182926L158.03760276138783,157.59316155876687L158.10981551110743,157.61545126573375L158.2903473854065,157.65925744848076L158.3264537602663,157.66361346394496L158.61530475914478,157.72336534323998L158.6514111340046,157.74590107831176L159.01247488260267,157.71878965982495L159.15690038204195,157.78146312286552L159.51796413064002,157.82512432476497L159.66238963007925,157.79234107978874L159.80681512951853,157.7836510156554L160.095666128397,157.8652774294903L160.27619800269605,157.92594752081962L160.81779362559317,157.74611635290353L160.853900000453,157.7693220752252L161.07053824961187,157.86276442813323L161.32328287363052,157.97259620684986L161.46770837306977,158.01129510974096L161.82877212166787,158.1118766710497L161.86487849652767,158.1189719458603L161.9009848713875,158.11981327411183L161.9370912462473,158.065654140844L162.15372949540614,158.1181657644809L162.2259422451258,158.136910030722L162.33426136970522,158.1646387161505L162.47868686914444,158.20826916453686L162.58700599372386,158.19620060732035L162.9841761171818,158.22939463136456L163.41745261549949,158.29078303689298L163.74240998923779,158.2891552973776L163.77851636409758,158.30744924431957L163.95904823839666,158.3665399230827L164.06736736297606,158.4008103200858L164.28400561213493,158.4380506277836L164.42843111157418,158.4254570641647L164.5728566110134,158.39668715264943L164.86170760989188,158.35335325599664L164.97002673447133,158.36663657698105L165.18666498363018,158.29403851592372L165.22277135848998,158.29947749438531L165.51162235736845,158.36008388200892L165.61994148194788,158.40905226159953L165.6560478568077,158.42042447141205L166.08932435512543,158.3599081476483L166.55870722830298,158.49036455026481L166.59481360316275,158.49490728348718L166.63091997802258,158.49960268593537L166.66702635288237,158.47977106333784L167.17251560091972,158.39882452181064L168.03906859755514,158.46132884052906L168.1473877221346,158.4345820708406L168.2196004718542,158.4609180614611L168.29181322157382,158.44363458709276L168.40013234615324,158.4402626840481L168.5445578455925,158.50767328644747L168.65287697017195,158.52066115403807L168.68898334503172,158.53700554791678L169.33889809250832,158.5335886129422L169.69996184110641,158.58287111770244L170.1332383394241,158.60650409418844L170.31377021372316,158.6023963035086L170.349876588583,158.61930085066183L170.45819571316244,158.64105566616854L170.85536583662034,158.7189927567699L170.89147221148014,158.7202591425062L171.32474870979786,158.75914476315546L171.3608550846577,158.73880241257234L171.43306783437728,158.7191860645666L171.46917420923708,158.71033124947016L171.57749333381653,158.74343520965454L171.61359970867633,158.7448344945011L171.64970608353613,158.75073587399913L171.90245070755483,158.74456100790238L171.97466345727443,158.76700118741553L172.5884718298912,158.83187242830377L172.66068457961083,158.80626244026064L172.69679095447066,158.81020218495811L172.84121645390988,158.85160300364393L172.9495355784893,158.87562698908232L173.56334395110608,158.75111480121424L173.77998220026493,158.703573164964L174.14104594886305,158.76743832663763L174.71874794662,158.69615387992602L175.04370532035827,158.63823842469964L175.1159180700779,158.6404603660219L175.18813081979752,158.64093155377634L175.36866269409657,158.67906151667486L175.476981818676,158.6996257318883L175.80193919241427,158.72990256554598L175.91025831699372,158.74900489054687L176.01857744157314,158.76332504425903L176.99344956278802,158.79830826376246L177.2100878119469,158.81800918392926L177.3184069365263,158.8462002703942L177.46283243596554,158.87638813853184L177.67947068512441,158.89671181733914L177.78778980970384,158.9168399916702L178.04053443372248,158.94939588031738L178.1127471834421,158.95361240663283L178.22106630802153,158.9759482438694L178.83487468063834,159.0284741459231L178.97930018007756,159.00946627814105L179.26815117895603,159.0422824733099L179.30425755381586,159.03647225601145L179.62921492755413,129.46196316726466L179.84585317671298,150.2703986183359L179.8819595515728,153.5680736657451L179.9180659264326,155.6596837961244L180.02638505101203,150.88192124314895L180.2430233001709,154.6872445314801L180.53187429904938,154.6075050653425L180.82072529792785,154.36007328224957L180.96515079736707,153.03885403205535L181.03736354708673,153.11704264246035L181.362320920825,155.74376390096964L181.54285279512405,155.6757085731347L181.7594910442829,157.20905896672951L181.97612929344177,156.8579834510938L182.22887391746042,157.61674950332292L182.87878866493702,159.17924544062888L183.5648097872734,160.14754176772124L183.70923528671264,160.12278079630792L183.85366078615186,159.88342181040665L184.46746915876867,159.1536629110796L184.6841074079275,159.15574975661215L184.9007456570864,159.154527304466L185.00906478166578,159.29621862442576L185.65897952914239,159.81716995644769L185.8034050285816,159.64276019355714L186.05614965260028,159.86821968987206L186.1644687771797,159.99469900423946L186.56163890063763,159.93704056051553L186.9227026492357,160.24565755628237L186.95880902409553,160.22418391575266L187.06712814867495,160.11252010632643L187.46429827213288,159.93486365112318L188.00589389503003,160.2114838131776L188.04200026988983,160.26923122242164L188.51138314306738,160.14581407928827L188.72802139222622,159.95824620614525L188.80023414194585,159.9638444438712L188.83634051680568,159.98676789287612L189.0529787659645,160.24943364835647L189.41404251456262,160.48171493288325L189.52236163914202,160.4877975384407L189.63068076372147,160.35811876037L189.66678713858127,160.3800976371865L189.8112126380205,160.59984357010129L190.17227638661862,160.84256457398948L190.64165925979614,160.89175152319112L190.67776563465594,160.815603628049L191.29157400727271,160.92388564937278L191.68874413073064,160.97419290512346L192.0137015044689,161.0708391150938L192.194233378768,161.19153457231687L192.37476525306704,161.26241373165925L192.59140350222586,161.3167969262369L192.91636087596416,161.02482966280036L193.20521187484263,161.17853462298896L193.53016924858093,161.37474642999564L193.92733937203886,161.46337585810178L194.1078712463379,161.42616300889784L194.2161903709173,161.35171534369482L194.79389236867425,161.43124063358042L195.08274336755275,161.43151631685865L195.227168866992,161.4391201229753L195.33548799157143,161.4899732535837L195.44380711615088,161.5281306749761L195.47991349101065,161.54106033055973L195.76876448988912,161.71461119176269L195.84097723960878,161.7585337985236L196.23814736306667,161.86967479822695L196.52699836194515,161.89915533556302L196.92416848540304,161.7024196204937L197.0685939848423,161.68430470293163L197.3574449837208,161.7766124708738L198.1878916054964,161.9407769205394L198.40452985465527,162.0336591201729L198.5489553540945,162.08474949216816L199.09055097699166,162.25567751803865L199.30718922615048,162.35077177393663L199.41550835072994,162.26978020047952L199.48772110044956,162.31288234744423L199.74046572446824,162.41740585012994L199.84878484904766,162.42486247871958L199.99321034848688,162.44514442061626L200.13763584792613,162.45641558317138L200.17374222278593,162.4698570650804L200.28206134736536,162.4932407184422L200.7514442205429,162.7032839179705L200.82365697026253,162.74349413636304L200.89586971998216,162.74115357434735L201.04029521942138,162.80273089431344L201.18472071886063,162.80283303991058L201.25693346858023,162.7329072394746L201.54578446745873,162.7373335486831L201.9068482160568,162.77013656377488L202.41233746409415,162.76071171034616L202.5206565886736,162.79098195396531L202.62897571325303,162.75006330643149L203.24278408586977,162.79410343554608L203.78437970876695,162.76840997368166L203.964911583066,162.83010481600144L204.0010179579258,162.83063641244235L204.14544345736502,162.89524844514864L204.2898689568043,162.94521960893462L204.32597533166407,162.94213107754646L204.43429445624352,162.9348326098814L204.61482633054257,162.98690819263598L204.65093270540237,163.00650696720567L205.01199645400047,163.09111537347255L205.30084745287894,163.01382410664655L205.4452729523182,163.0385169809951L205.51748570203782,163.0763921290707L205.7341239511967,163.04517950994264L206.02297495007517,163.14664962811236L206.05908132493497,163.16017897720164L206.2757195740938,163.20261662861523L206.38403869867327,163.24232270906066L206.88952794671061,163.20138648809078L206.99784707129,163.24380986108753L207.03395344614984,163.25527103642014L207.14227257072926,163.26766030884482L207.79218731820583,163.30568922448597L207.93661281764508,163.33613520246578L208.18935744166373,163.3801390863685L208.4059956908226,163.3531660586907L208.55042119026183,163.3102088925735L208.58652756512166,163.3251485099069L208.69484668970108,163.29078145900544L209.05591043829918,163.3975093295774L209.34476143717765,163.47367150313633L209.56139968633653,163.5332048128203L209.66971881091595,163.5523093345007L209.77803793549538,163.5328061154896L209.850250685215,163.55274647372278L209.92246343493463,163.5799018257997L210.50016543269157,163.61538808491045L210.5723781824112,163.63699352621063L210.6445909321308,163.66019595351307L210.68069730699062,163.67445789521827L210.71680368185045,163.67423383390843L210.9695483058691,163.7111391479813L211.00565468072892,163.7261765175528L211.6555694282055,163.69949015655078L211.76388855278492,163.7301382290453L212.37769692540166,163.76095874088122L212.8470797985792,163.7381879611021L213.31646267175677,163.77648926500225L213.38867542147636,163.78509036361552L214.07469654381276,163.80652116889482L214.21912204325199,163.82711723596108L214.47186666727066,163.86918694355708L214.6162921667099,163.8276257672672L214.79682404100893,163.78152295609465L215.84390891194343,163.91949200262826L215.91612166166308,163.90776283239572L216.27718541026115,163.92610840130612L216.31329178512095,163.93862617948201L217.46869578063487,164.01657864683995L218.3352487772703,164.0053997448241L218.76852527558805,164.05151134271466L218.84073802530764,164.07272797174193L219.0212698996067,164.05640554465833L219.3823336482048,164.03835542914172L219.49065277278422,164.056246285394L219.52675914764404,164.06755039814178L219.81561014652252,164.05974779252963L219.88782289624214,164.07258628591367L220.0683547705412,164.07483898074906L220.28499301970004,164.09841264688833L221.04322689175606,164.04606797089403L221.40429064035413,164.0726214327858L221.5487161397934,164.06659703923535L221.69314163923264,164.05846822671626L221.9458862632513,164.1045952013634L222.09031176269053,164.1278239888199L222.12641813755036,164.13571446161237L222.19863088726996,164.15441040090428L222.23473726212978,164.1403604387716L222.6680137604475,164.01967266992685L222.9929711341858,163.95548020300657L223.3901412576437,164.01096173733816L223.78731138110163,164.05378051264637L223.85952413082123,164.05676140673862L224.04005600512028,164.0888779594842L224.1122687548399,164.1041745372376L224.29280062913892,164.11256255793862L224.5094388782978,164.106632621607L224.76218350231647,164.11592787094474L224.90660900175573,164.13149903363666L225.23156637549403,164.1832802613372L225.77316199839115,164.2515508637639L225.80926837325094,164.2583166366483L225.9536938726902,164.24548802832203L226.09811937212942,164.27148243527904L226.20643849670887,164.2821835595019L226.96467236876487,164.3306126542733L227.21741699278354,164.35992514562702L227.28962974250317,164.36619007558363L227.36184249222276,164.3848991949526L228.1200763642788,161.44896564052982L228.15618273913861,161.6834842431354L228.26450186371804,160.4659867076065L228.33671461343764,160.8401328497742L228.48114011287691,162.42204413891093L228.51724648773668,162.82338846840594L228.69777836203573,160.6316306209207L228.7699911117554,159.66713894273607L228.84220386147499,159.43744754334915L229.02273573577403,160.2014636596022L229.70875685811043,161.28834992660927L229.9253951072693,161.65033195600185L229.9976078569889,162.03737919691957L230.10592698156833,161.97157876059947L230.4308843553066,163.07254464491257L230.82805447876453,163.5866588119661L231.15301185250283,163.8176770057758L231.18911822736263,163.8733584379426L231.33354372680188,164.02774107375944L231.69460747539998,163.96477545234433L231.94735209941865,164.2835048622259L232.09177759885787,163.91077997169984L232.34452222287655,163.6213224146011L232.70558597147465,163.73569363152086L232.77779872119427,163.88014727596186L232.8139050960541,163.94607182467414L232.95833059549332,164.00896495566548L233.03054334521292,164.0996779342849L233.10275609493257,164.09847195723503L233.13886246979237,164.05115767731388L233.21107521951197,164.14262521534428L233.6082453429699,164.43660683388958L234.54701108932497,164.33596925725337L234.8358620882034,164.2532477986838L234.94418121278284,164.35757799357282L235.0163939625025,164.03617851974937L235.0525003373623,164.0101193107469L235.30524496138096,164.17576102738155L235.4496704608202,164.32405117258315L235.5218832105398,164.378491480828L235.63020233511924,164.43913960536224L236.31622345745564,164.3868575347339L236.56896808147428,164.28195071147405L236.64118083119394,164.30051155497625L236.74949995577336,164.35582284664596L237.11056370437146,164.6470223705945L237.54384020268915,164.62812873014684L238.44649957418443,165.0688122946095L239.854648193717,165.34116650505956L240.2157119423151,165.512009958769L240.72120119035245,165.46817851420766L240.90173306465147,165.35201261012992L240.97394581437112,165.3839600185534L241.44332868754864,165.62698965591244L242.02103068530562,165.6338015590665L242.12934980988504,165.64900697462036L242.3820944339037,165.60153782879388L242.49041355848314,165.61389964272473L242.7431581825018,165.6601781882579L242.9959028065205,165.73349456351434L243.1042219310999,165.72060005480282L243.35696655511856,165.7699956885577L243.465285679698,165.8272499432522L243.71803030371666,165.9691807012784L243.79024305343628,165.98107352413427L243.8985621780157,165.94173648584615L243.93466855287554,165.95254854238414L243.9707749277353,165.93828110898016L244.00688130259513,165.96213924511574L244.2596259266138,166.02372974515887L244.51237055063248,166.05589242817413L244.83732792437075,165.81813372329435L244.98175342381,165.8409352565866L245.12617892324923,165.85133323903733L245.84830642044545,165.9899382242885L246.28158291876315,166.11785965875288L246.67875304222108,166.1734598137779L247.29256141483785,166.31111144012263L247.65362516343595,166.40046906748566L247.9063697874546,166.4456273064698L248.01468891203402,166.4691823008332L248.37575266063212,166.54289517674084L248.41185903549194,166.558809021436L248.48407178521154,166.58874756644946L248.70071003437042,166.64734838568233L248.95345465838906,166.70506943477224L249.89222040474417,166.82446885108564L250.3616032779217,166.83312157166736L250.86709252595904,166.89023194385408L251.0476244002581,166.89557426841733L251.1559435248375,166.87744946579747L251.44479452371598,166.8761105896374L251.66143277287483,166.9173850992515L252.05860289633273,167.03401669938492L252.38356027007103,167.08288732673742L252.6363048940897,167.1303443908266L252.85294314324855,167.17245913035248L252.99736864268777,167.1767745072458L253.06958139240743,167.09051639466844L253.10568776726723,167.10147013703468L254.18887901306152,167.28972666920345L254.33330451250075,167.2970635787599L254.36941088736057,167.30442465179095L254.62215551137922,167.25114089530703L254.65826188623905,167.26362462495052L255.27207025885582,167.36852375983213L255.48870850801467,167.35239354220545L255.56092125773432,167.36315837013404L255.5970276325941,167.37536092480053L255.99419775605202,167.4486740050377L256.10251688063147,167.45188005877952L256.6080061286688,167.3837456504823L256.752431628108,167.42873474514428L256.82464437782767,167.4481226384812L257.25792087614536,167.51587152952482L257.54677187502386,167.55141270562325L257.7273037493229,167.55739646060283L257.7995164990425,167.57354535000533L257.87172924876216,167.58310749590333L258.8104949951172,167.67614675812163L259.42430336773396,167.69655006656112L259.85757986605165,167.78595711921307L259.8936862409115,167.7960431731737L260.14643086493015,167.8226125609919L260.363069114089,167.7458479480779L260.6880264878273,167.69701631178665L260.7241328626871,167.6947081507937L260.86855836212635,167.6839768222276L261.0129838615656,167.712188227978L261.1574093610048,167.7356081265517L261.26572848558425,167.7561921118807L261.3379412353039,167.77455854924645L261.51847310960295,167.80336141095435L261.8073241084814,167.7853288688738L262.457238855958,167.84827856436246L262.8183026045561,167.8490671723058L262.8905153542757,167.86582124691273L263.1432599782944,167.88898907651293L263.43211097717284,167.9254858081973L263.46821735203264,167.91507299815987L263.5765364766121,167.92889175977433L264.08202572464944,167.95650017699978L264.5875149726868,168.00926441878008L264.731940472126,168.02162074101216L264.76804684698584,168.018875989967L264.80415322184564,168.0242825674059L265.2735360950232,168.0245637423829L265.490174344182,167.9906623875371L265.67070621848103,168.02223581127436L265.7068125933409,168.00084070203707L265.7790253430605,168.01270057470038L265.88734446763993,168.0139543295295L265.95955721735953,168.02875390854427L266.067876341939,168.05094421576342L266.4650464653969,168.0742213301691L267.4038122117519,168.06957480383997L268.0537269592285,168.08913239066888L268.5953225821257,168.1122996710992L268.7036417067051,168.04968112504636L268.73974808156487,168.0553985326356L268.8841735810041,168.03806563297834L268.9563863307238,168.05128195523776L269.3174500793219,168.07199444631797L269.8229393273592,168.09917011768036L270.3284285753965,168.0192812773362L270.47285407483577,167.99623646178847L270.5811731994152,167.97044414934618L270.617279574275,167.94788644747933L271.5921516954899,168.0314893237015L271.8087899446487,168.05127975855825L271.91710906922816,168.06647638739406L272.24206644296646,168.07589245410477L272.4587046921253,168.0878489806664L272.63923656642436,168.1017237576083L272.67534294128416,168.10764600556166L272.711449316144,168.1097520720399L272.7836620658636,168.08149673269935L273.1086194396019,168.122844831077L273.21693856418136,168.1306002080797L273.28915131390096,168.1228755845901L273.4335768133402,168.1390623667141L273.8668533116579,168.15468350386482L273.9390660613775,168.16337851052705L274.04738518595695,168.17394508813004L274.227917060256,168.19536600835156L274.37234255969526,168.18792255983897L274.9500445574522,168.22289918930386L274.986150932312,168.2206388060902L275.13057643175125,168.24103442615137L275.2750019311905,168.25384875606085" fill="none"></path></g></g></g></g></g></g><g transform="translate(41, 176)" clip-path="url(#clip_1)"><clipPath id="clip_1"><rect width="288" height="23"></rect></clipPath><g><g><line x1="0" y1="0" x2="0" y2="5" style="visibility: inherit;" fill="rgb(0, 0, 0)" stroke="rgb(204, 204, 204)" stroke-width="1px"></line><line x1="36.106374859809875" y1="0" x2="36.106374859809875" y2="5" style="visibility: inherit;" fill="rgb(0, 0, 0)" stroke="rgb(204, 204, 204)" stroke-width="1px"></line><line x1="72.21274971961975" y1="0" x2="72.21274971961975" y2="5" style="visibility: inherit;" fill="rgb(0, 0, 0)" stroke="rgb(204, 204, 204)" stroke-width="1px"></line><line x1="108.31912457942963" y1="0" x2="108.31912457942963" y2="5" style="visibility: inherit;" fill="rgb(0, 0, 0)" stroke="rgb(204, 204, 204)" stroke-width="1px"></line><line x1="144.4254994392395" y1="0" x2="144.4254994392395" y2="5" style="visibility: inherit;" fill="rgb(0, 0, 0)" stroke="rgb(204, 204, 204)" stroke-width="1px"></line><line x1="180.53187429904938" y1="0" x2="180.53187429904938" y2="5" style="visibility: inherit;" fill="rgb(0, 0, 0)" stroke="rgb(204, 204, 204)" stroke-width="1px"></line><line x1="216.63824915885925" y1="0" x2="216.63824915885925" y2="5" style="visibility: inherit;" fill="rgb(0, 0, 0)" stroke="rgb(204, 204, 204)" stroke-width="1px"></line><line x1="252.74462401866913" y1="0" x2="252.74462401866913" y2="5" style="visibility: inherit;" fill="rgb(0, 0, 0)" stroke="rgb(204, 204, 204)" stroke-width="1px"></line><line x1="288.850998878479" y1="0" x2="288.850998878479" y2="5" style="visibility: inherit;" fill="rgb(0, 0, 0)" stroke="rgb(204, 204, 204)" stroke-width="1px"></line></g><g transform="translate(0, 8)"><text style="text-anchor: middle; visibility: hidden; font-family: Roboto, sans-serif; font-size: 12px; font-weight: 200;" x="0" y="0" dx="0em" dy="0.95em" fill="rgb(33, 33, 33)" stroke="none" stroke-width="1px">-1k</text><text style="text-anchor: middle; visibility: inherit; font-family: Roboto, sans-serif; font-size: 12px; font-weight: 200;" x="36.106374859809875" y="0" dx="0em" dy="0.95em" fill="rgb(33, 33, 33)" stroke="none" stroke-width="1px">0</text><text style="text-anchor: middle; visibility: inherit; font-family: Roboto, sans-serif; font-size: 12px; font-weight: 200;" x="72.21274971961975" y="0" dx="0em" dy="0.95em" fill="rgb(33, 33, 33)" stroke="none" stroke-width="1px">1k</text><text style="text-anchor: middle; visibility: inherit; font-family: Roboto, sans-serif; font-size: 12px; font-weight: 200;" x="108.31912457942963" y="0" dx="0em" dy="0.95em" fill="rgb(33, 33, 33)" stroke="none" stroke-width="1px">2k</text><text style="text-anchor: middle; visibility: inherit; font-family: Roboto, sans-serif; font-size: 12px; font-weight: 200;" x="144.4254994392395" y="0" dx="0em" dy="0.95em" fill="rgb(33, 33, 33)" stroke="none" stroke-width="1px">3k</text><text style="text-anchor: middle; visibility: inherit; font-family: Roboto, sans-serif; font-size: 12px; font-weight: 200;" x="180.53187429904938" y="0" dx="0em" dy="0.95em" fill="rgb(33, 33, 33)" stroke="none" stroke-width="1px">4k</text><text style="text-anchor: middle; visibility: inherit; font-family: Roboto, sans-serif; font-size: 12px; font-weight: 200;" x="216.63824915885925" y="0" dx="0em" dy="0.95em" fill="rgb(33, 33, 33)" stroke="none" stroke-width="1px">5k</text><text style="text-anchor: middle; visibility: inherit; font-family: Roboto, sans-serif; font-size: 12px; font-weight: 200;" x="252.74462401866913" y="0" dx="0em" dy="0.95em" fill="rgb(33, 33, 33)" stroke="none" stroke-width="1px">6k</text><text style="text-anchor: middle; visibility: hidden; font-family: Roboto, sans-serif; font-size: 12px; font-weight: 200;" x="288.850998878479" y="0" dx="0em" dy="0.95em" fill="rgb(33, 33, 33)" stroke="none" stroke-width="1px">7k</text></g><line x1="0" y1="0" x2="288.850998878479" y2="0" fill="rgb(0, 0, 0)" stroke="rgb(204, 204, 204)" stroke-width="1px"></line></g></g></g></g></svg>